<svg width="42" height="42" viewBox="0 0 42 42" fill="none" xmlns="http://www.w3.org/2000/svg">
<g id="vr-glasses (1) 1" clip-path="url(#clip0_30_45)">
<path id="Vector" d="M40.25 11.6202C39.8895 11.6202 39.5535 11.398 39.4258 11.0375C37.45 5.48299 32.1545 1.75024 26.25 1.75024C22.512 1.75024 18.9963 3.20799 16.352 5.85224C16.0895 6.11474 15.827 6.39124 15.582 6.68699C15.2723 7.05974 14.7193 7.10699 14.3483 6.79724C13.9773 6.48749 13.9283 5.93624 14.238 5.56524C14.518 5.22924 14.8173 4.91074 15.1165 4.61499C18.0898 1.63999 22.0448 0.000244141 26.25 0.000244141C32.8948 0.000244141 38.8518 4.20024 41.0743 10.453C41.237 10.908 40.999 11.4085 40.544 11.5712C40.446 11.6045 40.348 11.6202 40.25 11.6202Z" fill="#96C12A"/>
<path id="Vector_2" d="M35.875 42.0002H20.125C19.642 42.0002 19.25 41.6082 19.25 41.1252V35.3065L15.0255 36.591C14.7403 36.6925 14.3833 36.7502 14 36.7502C12.0697 36.7502 10.5 35.1805 10.5 33.2502V28.0002H7C6.01825 28.0002 5.25 27.232 5.25 26.2502C5.25 25.9212 5.34275 25.6062 5.52125 25.3157L7.99225 21.408C8.25125 20.9985 8.79375 20.8777 9.19975 21.1367C9.6075 21.394 9.73 21.9347 9.471 22.3425L7.0035 26.245L11.375 26.2502C11.858 26.2502 12.25 26.6422 12.25 27.1252V33.2502C12.25 34.2145 13.034 35.0002 14 35.0002C14.182 35.0002 14.343 34.9757 14.4777 34.9285L19.8695 33.287C20.1355 33.21 20.4242 33.2572 20.6447 33.4217C20.8687 33.5862 21 33.8487 21 34.1252V40.2502H35V32.3227C35 29.2707 35.931 26.3202 37.695 23.7897C39.368 21.4325 40.25 18.6552 40.25 15.7502C40.25 15.2672 40.642 14.8752 41.125 14.8752C41.608 14.8752 42 15.2672 42 15.7502C42 19.0192 41.0078 22.1482 39.1265 24.796C37.5742 27.0255 36.75 29.6312 36.75 32.3227V41.1252C36.75 41.6082 36.358 42.0002 35.875 42.0002Z" fill="#96C12A"/>
<path id="Vector_3" d="M18.375 22.7502H4.375C1.96175 22.7502 0 20.7867 0 18.3752V9.62524C0 7.21374 1.96175 5.25024 4.375 5.25024H18.375C19.8223 5.25024 21 6.42799 21 7.87524V10.5002C21 10.9832 20.608 11.3752 20.125 11.3752C19.642 11.3752 19.25 10.9832 19.25 10.5002V7.87524C19.25 7.39224 18.8563 7.00024 18.375 7.00024H4.375C2.92775 7.00024 1.75 8.17799 1.75 9.62524V18.3752C1.75 19.8225 2.92775 21.0002 4.375 21.0002H18.375C18.8563 21.0002 19.25 20.6082 19.25 20.1252V17.5002C19.25 17.0172 19.642 16.6252 20.125 16.6252C20.608 16.6252 21 17.0172 21 17.5002V20.1252C21 21.5725 19.8223 22.7502 18.375 22.7502Z" fill="#96C12A"/>
<path id="Vector_4" d="M39.375 18.3752H14.875C13.4278 18.3752 12.25 17.1975 12.25 15.7502V12.2502C12.25 10.803 13.4278 9.62524 14.875 9.62524H39.375C40.8223 9.62524 42 10.803 42 12.2502V15.7502C42 17.1975 40.8223 18.3752 39.375 18.3752ZM14.875 11.3752C14.3938 11.3752 14 11.7672 14 12.2502V15.7502C14 16.2332 14.3938 16.6252 14.875 16.6252H39.375C39.8563 16.6252 40.25 16.2332 40.25 15.7502V12.2502C40.25 11.7672 39.8563 11.3752 39.375 11.3752H14.875Z" fill="#96C12A"/>
<path id="Vector_5" d="M6.125 22.7502C5.642 22.7502 5.25 22.3582 5.25 21.8752V6.12524C5.25 5.64224 5.642 5.25024 6.125 5.25024C6.608 5.25024 7 5.64224 7 6.12524V21.8752C7 22.3582 6.608 22.7502 6.125 22.7502Z" fill="#96C12A"/>
</g>
<defs>
<clipPath id="clip0_30_45">
<rect width="42" height="42" fill="white" transform="translate(0 0.000244141)"/>
</clipPath>
</defs>
</svg>
