<svg width="47" height="47" viewBox="0 0 47 47" fill="none" xmlns="http://www.w3.org/2000/svg">
<g id="piggy-bank 1" clip-path="url(#clip0_30_65)">
<g id="Group">
<g id="Group_2">
<path id="Vector" d="M38.7845 24.8413C38.4067 24.8413 38.1005 25.1475 38.1005 25.5253C38.1005 26.0042 37.7109 26.3938 37.232 26.3938C36.7532 26.3938 36.3635 26.0042 36.3635 25.5253C36.3635 25.1475 36.0573 24.8413 35.6795 24.8413C35.3018 24.8413 34.9955 25.1475 34.9955 25.5253C34.9955 26.7585 35.9989 27.7617 37.232 27.7617C38.4651 27.7617 39.4684 26.7584 39.4684 25.5253C39.4684 25.1474 39.1622 24.8413 38.7845 24.8413Z" fill="#96C12A"/>
</g>
</g>
<g id="Group_3">
<g id="Group_4">
<path id="Vector_2" d="M45.2048 24.9531L43.2797 24.3364C43.0331 24.2574 42.8388 24.0605 42.7599 23.8098C42.3542 22.5198 41.7419 21.3087 40.94 20.2101C40.5746 19.7094 40.1682 19.2312 39.7243 18.776C40.0083 17.53 40.1627 16.1199 40.1427 14.9017C40.114 13.1589 39.7658 12.1368 39.078 11.7766C38.7076 11.5823 37.5804 10.9922 31.4789 13.7853C31.3344 13.8514 31.1995 13.9328 31.0745 14.026C30.6632 13.9155 30.2428 13.8133 29.8198 13.7215C29.7688 13.7104 29.7163 13.7005 29.665 13.6897C30.1594 12.6096 30.4481 11.4365 30.5024 10.2256C30.5192 9.84809 30.2271 9.52846 29.8496 9.51166C29.4731 9.49293 29.1525 9.78686 29.1357 10.1643C29.0466 12.1555 28.2206 14.029 26.81 15.4396C25.9672 16.2824 24.9804 16.8946 23.9287 17.2801C22.1048 17.0242 20.247 17.0242 18.4231 17.2801C17.3713 16.8946 16.3845 16.2824 15.5418 15.4396C14.0368 13.9347 13.208 11.9338 13.208 9.8055C13.208 7.6771 14.0368 5.67629 15.5418 4.17137C17.0467 2.66637 19.0477 1.83753 21.1759 1.83753C23.3041 1.83753 25.3051 2.66637 26.81 4.17137C27.4148 4.77613 27.9145 5.46626 28.2954 6.22239C28.4653 6.55984 28.8766 6.6957 29.214 6.52569C29.5514 6.35586 29.6872 5.94452 29.5173 5.60717C29.0709 4.7205 28.4855 3.91205 27.7775 3.20393C26.0141 1.4406 23.6696 0.469482 21.176 0.469482C18.6823 0.469482 16.3378 1.4406 14.5745 3.20393C12.8112 4.96734 11.8401 7.31175 11.8401 9.80541C11.8401 12.2991 12.8112 14.6436 14.5745 16.4069C15.0831 16.9155 15.6365 17.3529 16.2218 17.7194C16.222 17.7194 16.2222 17.7193 16.2223 17.7193C15.797 17.8298 15.375 17.9539 14.9576 18.0935C14.5993 18.2133 14.406 18.6007 14.5258 18.9591C14.6455 19.3174 15.0331 19.5107 15.3913 19.391C19.1216 18.144 23.2304 18.144 26.9607 19.391C27.0326 19.4151 27.1057 19.4265 27.1776 19.4265C27.4637 19.4265 27.7305 19.2454 27.8262 18.9591C27.946 18.6008 27.7527 18.2133 27.3944 18.0935C26.977 17.9539 26.5549 17.8297 26.1296 17.7193C26.1298 17.7193 26.13 17.7194 26.1302 17.7194C26.7156 17.3529 27.2688 16.9155 27.7775 16.4069C28.2274 15.9569 28.6247 15.4655 28.9695 14.9433C29.1581 14.9799 29.3453 15.0183 29.5297 15.0583C29.7753 15.1116 30.0199 15.1689 30.2622 15.229C30.2546 15.2588 30.2468 15.2884 30.2405 15.3186C29.9069 16.9017 29.9285 18.3018 30.3048 19.4798C30.643 20.5387 31.2533 21.3965 32.1187 22.0296C33.1387 22.7758 34.37 23.098 35.4855 23.098C36.3249 23.098 37.0989 22.9154 37.6673 22.5934C38.3102 22.2293 38.8489 21.462 39.2753 20.3099C39.4724 20.5399 39.6592 20.7756 39.8353 21.0168C40.5492 21.9948 41.0942 23.0727 41.4551 24.2204C41.6671 24.8944 42.1932 25.4248 42.8625 25.6394L44.7877 26.256C45.2929 26.4179 45.6322 26.8828 45.6322 27.4132V30.6055C45.6322 31.1359 45.2929 31.6008 44.7877 31.7627L41.686 32.7562C41.1897 32.9153 40.7697 33.2563 40.5034 33.7166C39.2848 35.8226 37.3689 37.5653 34.8086 38.8965C34.5129 39.0504 34.308 39.3257 34.2463 39.652L33.2529 44.9122C33.2254 45.0571 33.0985 45.1623 32.9509 45.1623H29.7209C29.5734 45.1623 29.4464 45.0571 29.419 44.9122L28.8687 42.0051C28.7604 41.4331 28.224 41.0532 27.6466 41.1406C26.2552 41.351 24.8215 41.4576 23.3855 41.4576C22.3172 41.4576 21.2625 41.398 20.2507 41.2804C19.6912 41.2161 19.1699 41.5975 19.0654 42.1499L18.5425 44.9122C18.5151 45.0571 18.3881 45.1623 18.2406 45.1623H15.0105C14.863 45.1623 14.7361 45.0571 14.7082 44.91L13.7517 39.9418C13.6901 39.6217 13.4891 39.3495 13.1998 39.195C8.83545 36.8651 6.52859 32.9725 6.52859 27.9384C6.52859 25.3949 7.08507 23.1458 8.1825 21.2533C9.20658 19.4872 10.7023 18.027 12.6281 16.9131C12.9551 16.7239 13.0668 16.3055 12.8777 15.9784C12.6886 15.6514 12.2702 15.5399 11.9431 15.7288C8.20894 17.8889 5.9567 21.2215 5.33661 25.4543V25.4542C5.27079 25.4482 5.20488 25.4425 5.13925 25.4358C5.15118 24.9791 5.06856 24.5182 4.88864 24.071C4.4918 23.0846 3.67665 22.3726 2.81183 22.2572C2.13033 22.1659 1.48179 22.4553 1.03171 23.0499C0.379121 23.9123 0.485514 24.5947 0.689578 25.0153C1.03409 25.7252 1.91966 26.2273 3.38923 26.543C3.34884 26.6035 3.30441 26.6643 3.25576 26.7253C2.38745 27.8143 1.36447 28.0551 0.700227 28.0778C0.311375 28.0909 0 28.4031 0 28.7922V28.7955C0 29.1793 0.302838 29.4923 0.686273 29.5099C0.735385 29.5122 0.786699 29.5134 0.840125 29.5134C1.68062 29.5134 3.02957 29.2034 4.32556 27.5783C4.53018 27.3218 4.69688 27.0512 4.82503 26.7716C4.95409 26.7862 5.07811 26.7987 5.1969 26.8097C5.1969 26.8094 5.1969 26.8092 5.19699 26.8089C5.17367 27.1796 5.16073 27.5557 5.16073 27.9384C5.16073 30.7867 5.83975 33.3262 7.17879 35.4869C8.41346 37.4789 10.1812 39.1099 12.4346 40.3365L13.3645 45.1665C13.5141 45.9567 14.2063 46.5302 15.0105 46.5302H18.2406C19.0448 46.5302 19.7371 45.9567 19.8866 45.1665L20.3594 42.6689C21.3412 42.7729 22.3578 42.8256 23.3854 42.8256C24.7954 42.8256 26.2038 42.7273 27.5763 42.5335L28.0747 45.1667C28.2243 45.9568 28.9166 46.5303 29.7207 46.5303H32.9508C33.755 46.5303 34.4472 45.9568 34.5969 45.1663L35.5641 40.0449C38.2967 38.5999 40.3565 36.7017 41.6873 34.4016C41.7833 34.2359 41.931 34.1142 42.1032 34.0591L45.2048 33.0655C46.2786 32.7214 47 31.7328 47 30.6053V27.4131C47 26.2856 46.2786 25.297 45.2048 24.9531ZM38.672 16.8238C38.4087 19.0752 37.7025 21.0011 36.9929 21.403C36.1864 21.8599 34.3243 21.9481 32.9263 20.9254C31.5265 19.9015 31.0607 18.0602 31.5789 15.6006C31.5789 15.6005 31.5789 15.6005 31.5789 15.6005C31.6309 15.3535 31.8064 15.1398 32.0483 15.0291C35.4727 13.4616 37.447 12.9489 38.1804 12.9489C38.2911 12.9489 38.3736 12.9606 38.4285 12.982C38.6488 13.2169 38.9378 14.5517 38.672 16.8238ZM1.92048 24.418C1.84971 24.272 2.01678 24.0155 2.12271 23.8754C2.29061 23.6536 2.44529 23.6083 2.56214 23.6083C2.58684 23.6083 2.60988 23.6103 2.63099 23.6131C2.94549 23.6551 3.38611 24.0012 3.61955 24.5814C3.67454 24.718 3.74595 24.9443 3.76266 25.2265C2.81578 25.0303 2.08012 24.7475 1.92048 24.418Z" fill="#96C12A"/>
</g>
</g>
<g id="Group_5">
<g id="Group_6">
<path id="Vector_3" d="M21.8401 9.02162V6.57395C22.6842 6.63426 22.9978 7.02008 23.2871 7.02008C23.6489 7.02008 23.8177 6.56193 23.8177 6.3328C23.8177 5.7419 22.6601 5.48873 21.8401 5.46459V5.13889C21.8401 4.99422 21.6592 4.86157 21.4784 4.86157C21.2733 4.86157 21.1286 4.99422 21.1286 5.13889V5.48855C19.9831 5.60917 18.8376 6.21209 18.8376 7.73142C18.8376 9.27489 20.0434 9.709 21.1286 10.0948V12.9285C19.8986 12.832 19.5731 11.9879 19.1752 11.9879C18.8737 11.9879 18.6205 12.3859 18.6205 12.6753C18.6205 13.2661 19.6334 14.074 21.1286 14.0982V14.472C21.1286 14.6166 21.2734 14.7493 21.4784 14.7493C21.6593 14.7493 21.8401 14.6166 21.8401 14.472V14.062C23.1425 13.8811 24.0347 13.0611 24.0347 11.578C24.0347 9.93812 22.8892 9.40745 21.8401 9.02162ZM21.201 8.79259C20.5619 8.55144 20.0434 8.29826 20.0434 7.61098C20.0434 6.98392 20.5257 6.68246 21.201 6.59809V8.79259ZM21.7677 12.9044V10.3601C22.3585 10.6133 22.8288 10.9509 22.8288 11.7105C22.8288 12.398 22.4188 12.7838 21.7677 12.9044Z" fill="#96C12A"/>
</g>
</g>
</g>
<defs>
<clipPath id="clip0_30_65">
<rect width="47" height="47" fill="white"/>
</clipPath>
</defs>
</svg>
