<svg width="40" height="40" viewBox="0 0 40 40" fill="none" xmlns="http://www.w3.org/2000/svg">
<g id="shield (3) 1" clip-path="url(#clip0_30_185)">
<g id="Group">
<g id="Group_2">
<path id="Vector" d="M30.3025 13.6249C29.9852 13.3076 29.4693 13.3076 29.152 13.6249L18.3377 24.4393L12.4033 18.5065C12.086 18.1892 11.5702 18.1892 11.2529 18.5065C10.9356 18.8238 10.9356 19.3397 11.2529 19.657L17.7616 26.1657C17.9211 26.3235 18.1294 26.4033 18.3377 26.4033C18.546 26.4033 18.7542 26.3236 18.9121 26.1657L30.3024 14.7754C30.6198 14.458 30.6198 13.9422 30.3025 13.6249Z" fill="#96C12A"/>
</g>
</g>
<g id="Group_3">
<g id="Group_4">
<path id="Vector_2" d="M36.4695 5.28389L20.1976 0.402316C20.0447 0.35678 19.8836 0.35678 19.7306 0.402316L3.4587 5.28389C3.11531 5.38641 2.87939 5.70371 2.87939 6.06335V23.9625C2.87939 31.1579 13.8499 37.5577 19.7241 39.385C19.8022 39.4094 19.8836 39.4208 19.9649 39.4208C20.0462 39.4208 20.1276 39.4094 20.2057 39.385C26.0799 37.556 37.0504 31.1579 37.0504 23.9624V6.06335C37.0504 5.70371 36.8145 5.38801 36.4695 5.28389ZM35.4233 23.9624C35.4233 29.6755 26.3712 35.6831 19.9649 37.7545C13.5587 35.6831 4.50656 29.6755 4.50656 23.9624V6.66866L19.9649 2.03116L35.4233 6.66866V23.9624Z" fill="#96C12A"/>
</g>
</g>
</g>
<defs>
<clipPath id="clip0_30_185">
<rect width="39.0526" height="39.0526" fill="white" transform="translate(0.438599 0.368164)"/>
</clipPath>
</defs>
</svg>
