<svg width="16" height="16" viewBox="0 0 16 16" fill="none" xmlns="http://www.w3.org/2000/svg">
<path id="Vector" d="M15.6039 3.25484C15.8196 3.25484 15.9961 3.07837 16 2.86268V0.396017C16 0.17641 15.8235 -6.10352e-05 15.6039 -6.10352e-05H13.1373C12.9216 -6.10352e-05 12.7451 0.17641 12.7451 0.396017V1.25484H3.2549V0.396017C3.2549 0.180331 3.07843 0.00386053 2.86275 -6.10352e-05H0.396078C0.180392 -6.10352e-05 0.00392157 0.17641 0 0.396017V2.86268C0 3.07837 0.176471 3.25484 0.396078 3.25484H1.2549V12.745H0.396078C0.180392 12.745 0.00392157 12.9215 0 13.1372V15.6039C0 15.8195 0.176471 15.996 0.396078 15.9999H2.86275C3.07843 15.9999 3.2549 15.8235 3.2549 15.6039V14.745H12.7451V15.6039C12.7451 15.8195 12.9216 15.996 13.1373 15.9999H15.6039C15.8196 15.9999 15.9961 15.8235 16 15.6039V13.1372C16 12.9215 15.8235 12.745 15.6039 12.745H14.7451V3.25484H15.6039ZM0.784314 2.47053V0.784253H2.47059V2.47053H0.784314ZM2.47059 15.2156H0.784314V13.5294H2.47059V15.2156ZM12.7451 13.1372V13.9607H3.2549V13.1372C3.2549 12.9215 3.07843 12.745 2.86275 12.745H2.03922V3.25484H2.86275C3.07843 3.25484 3.2549 3.07837 3.2549 2.86268V2.03915H12.7451V2.86268C12.7451 3.07837 12.9216 3.25484 13.1373 3.25484H13.9608V12.745H13.1373C12.9216 12.745 12.7451 12.9215 12.7451 13.1372ZM15.2157 13.5294V15.2156H13.5294V13.5294H15.2157ZM13.5294 2.47053V0.784253H15.2157V2.47053H13.5294Z" fill="#96C12A"/>
</svg>
