<svg width="22.000000" height="14.666626" viewBox="0 0 22 14.6666" fill="none" xmlns="http://www.w3.org/2000/svg" xmlns:xlink="http://www.w3.org/1999/xlink">
	<desc>
			Created with Pixso.
	</desc>
	<defs/>
	<path id="Vector" d="M0.458374 6.875L20.4352 6.875L14.3426 0.782349C14.1636 0.603394 14.1636 0.313354 14.3426 0.134277C14.5217 -0.0447998 14.8117 -0.0447998 14.9907 0.134277L21.8657 7.00928C22.0448 7.18835 22.0448 7.47839 21.8657 7.65735L14.9907 14.5323C14.9012 14.6218 14.7839 14.6666 14.6667 14.6666C14.5494 14.6666 14.4321 14.6218 14.3426 14.5323C14.1635 14.3533 14.1635 14.0632 14.3426 13.8843L20.4352 7.79175L0.458344 7.79175C0.204987 7.79175 0 7.58667 0 7.33337C0 7.07996 0.205048 6.875 0.458374 6.875Z" fill-rule="nonzero" fill="#96C12A"/>
</svg>
