<svg width="88" height="89" viewBox="0 0 88 89" fill="none" xmlns="http://www.w3.org/2000/svg">
<rect x="1" y="1" width="86" height="87" rx="43" fill="#9297AB" stroke="#AAB2D3" stroke-width="2"/>
<g clip-path="url(#clip0_190_143)">
<path d="M56.523 23.3359H30.4754C28.5954 23.3359 27.0714 24.86 27.0714 26.74V62.2597C27.0714 64.1397 28.5954 65.6637 30.4754 65.6637H56.523C58.403 65.6637 59.927 64.1397 59.927 62.2597V26.74C59.927 24.86 58.403 23.3359 56.523 23.3359Z" fill="#B0B3C1"/>
<path d="M59.9274 26.7423V62.2596C59.9275 63.1624 59.569 64.0283 58.9307 64.6667C58.2925 65.3052 57.4268 65.6641 56.524 65.6643H30.4764C29.7986 65.6646 29.1361 65.4624 28.574 65.0836C28.0118 64.7049 27.5756 64.1669 27.3213 63.5385H55.2941C55.8832 63.5387 56.4482 63.3051 56.8652 62.889C57.2822 62.4729 57.517 61.9084 57.518 61.3193V23.4844C58.2151 23.6986 58.8252 24.1305 59.2588 24.7169C59.6924 25.3032 59.9267 26.013 59.9274 26.7423Z" fill="#9297AB"/>
<path d="M56.5233 66H30.4753C29.4839 65.9986 28.5336 65.604 27.8327 64.9028C27.1318 64.2016 26.7377 63.2511 26.7367 62.2597V26.74C26.7378 25.7486 27.132 24.7982 27.8328 24.0971C28.5337 23.396 29.484 23.0014 30.4753 23H56.5233C57.5149 23.0011 58.4655 23.3954 59.1667 24.0966C59.8678 24.7978 60.2622 25.7484 60.2633 26.74V62.2597C60.2623 63.2513 59.8679 64.2021 59.1668 64.9033C58.4656 65.6045 57.5149 65.9989 56.5233 66ZM30.4753 23.6719C29.6621 23.6731 28.8826 23.9968 28.3077 24.572C27.7328 25.1471 27.4095 25.9268 27.4086 26.74V62.2597C27.4094 63.0729 27.7327 63.8527 28.3076 64.4279C28.8825 65.0031 29.6621 65.3269 30.4753 65.3281H56.5233C57.3367 65.3272 58.1166 65.0037 58.6918 64.4285C59.267 63.8533 59.5905 63.0734 59.5914 62.26V26.74C59.5905 25.9265 59.267 25.1467 58.6918 24.5715C58.1166 23.9963 57.3367 23.6728 56.5233 23.6719H30.4753Z" fill="#2F3A5A"/>
<path d="M56.4447 25.7529H30.5537C29.9624 25.7529 29.483 26.2323 29.483 26.8236V37.4331C29.483 38.0244 29.9624 38.5038 30.5537 38.5038H56.4447C57.036 38.5038 57.5153 38.0244 57.5153 37.4331V26.8236C57.5153 26.2323 57.036 25.7529 56.4447 25.7529Z" fill="#D9E2E9"/>
<path d="M56.4447 38.8397H30.554C30.1811 38.8393 29.8236 38.6909 29.5599 38.4272C29.2962 38.1636 29.1478 37.8061 29.1474 37.4331V26.8236C29.1478 26.4506 29.2962 26.093 29.56 25.8293C29.8237 25.5656 30.1813 25.4173 30.5543 25.417H56.445C56.818 25.4173 57.1756 25.5656 57.4393 25.8293C57.7031 26.093 57.8515 26.4506 57.8519 26.8236V37.4331C57.8515 37.8062 57.7031 38.1638 57.4392 38.4275C57.1754 38.6912 56.8177 38.8394 56.4447 38.8397ZM30.554 26.0889C30.3592 26.0891 30.1725 26.1666 30.0348 26.3043C29.897 26.4421 29.8195 26.6288 29.8193 26.8236V37.4331C29.8195 37.628 29.897 37.8149 30.0348 37.9527C30.1726 38.0905 30.3594 38.168 30.5543 38.1682H56.445C56.6398 38.168 56.8267 38.0905 56.9644 37.9528C57.1022 37.8151 57.1798 37.6283 57.18 37.4335V26.8236C57.1798 26.6288 57.1023 26.4421 56.9646 26.3043C56.8268 26.1666 56.6401 26.0891 56.4454 26.0889H30.554Z" fill="#2F3A5A"/>
<path d="M55.0845 28.061H31.9155V36.1941H55.0845V28.061Z" fill="#81DAFC"/>
<path d="M34.7119 41.9692H30.6161C30.4984 41.9734 30.387 42.024 30.3065 42.1101C30.2261 42.1962 30.183 42.3107 30.1868 42.4285V44.7424C30.183 44.8602 30.2261 44.9747 30.3065 45.0608C30.387 45.1469 30.4984 45.1975 30.6161 45.2016H34.7119C34.8297 45.1975 34.941 45.1469 35.0215 45.0608C35.102 44.9747 35.145 44.8602 35.1412 44.7424V42.4285C35.145 42.3107 35.102 42.1962 35.0215 42.1101C34.941 42.024 34.8297 41.9734 34.7119 41.9692Z" fill="#D9E2E9"/>
<path d="M34.7119 45.5379H30.6162C30.4093 45.5336 30.2126 45.4474 30.0691 45.2983C29.9257 45.1492 29.8472 44.9493 29.8509 44.7424V42.4288C29.8472 42.2219 29.9257 42.022 30.0691 41.8729C30.2126 41.7238 30.4093 41.6376 30.6162 41.6333H34.7119C34.9188 41.6376 35.1155 41.7238 35.2589 41.8729C35.4024 42.022 35.4809 42.2219 35.4772 42.4288V44.7424C35.4809 44.9493 35.4024 45.1492 35.2589 45.2983C35.1155 45.4474 34.9188 45.5336 34.7119 45.5379ZM30.6162 42.3055C30.5658 42.3055 30.5228 42.3619 30.5228 42.4291V44.7427C30.5228 44.8099 30.5654 44.8663 30.6162 44.8663H34.7119C34.7623 44.8663 34.8053 44.8099 34.8053 44.7427V42.4288C34.8053 42.3616 34.7626 42.3052 34.7119 42.3052L30.6162 42.3055Z" fill="#2F3A5A"/>
<path d="M41.8623 41.9692H37.7666C37.6488 41.9734 37.5375 42.024 37.457 42.1101C37.3765 42.1962 37.3335 42.3107 37.3373 42.4285V44.7424C37.3335 44.8602 37.3765 44.9747 37.457 45.0608C37.5375 45.1469 37.6488 45.1975 37.7666 45.2016H41.8623C41.9799 45.1973 42.091 45.1465 42.1713 45.0604C42.2516 44.9744 42.2945 44.86 42.2907 44.7424V42.4285C42.2945 42.3108 42.2516 42.1965 42.1713 42.1104C42.091 42.0244 41.9799 41.9736 41.8623 41.9692Z" fill="#D9E2E9"/>
<path d="M41.8623 45.5379H37.7666C37.5597 45.5336 37.363 45.4474 37.2195 45.2983C37.0761 45.1492 36.9976 44.9493 37.0013 44.7424V42.4288C36.9976 42.2219 37.0761 42.022 37.2195 41.8729C37.363 41.7238 37.5597 41.6376 37.7666 41.6333H41.8623C42.069 41.6379 42.2655 41.7242 42.4087 41.8733C42.5519 42.0223 42.6303 42.2221 42.6266 42.4288V44.7424C42.6303 44.9491 42.5519 45.1488 42.4087 45.2979C42.2655 45.447 42.069 45.5333 41.8623 45.5379ZM37.7666 42.3055C37.7162 42.3055 37.6732 42.3619 37.6732 42.4291V44.7427C37.6732 44.8099 37.7158 44.8663 37.7666 44.8663H41.8623C41.9127 44.8663 41.9557 44.8099 41.9557 44.7427V42.4288C41.9557 42.3616 41.913 42.3052 41.8623 42.3052L37.7666 42.3055Z" fill="#2F3A5A"/>
<path d="M49.0127 41.9692H44.917C44.7992 41.9734 44.6879 42.024 44.6074 42.1101C44.5269 42.1962 44.4839 42.3107 44.4877 42.4285V44.7424C44.4839 44.8602 44.5269 44.9747 44.6074 45.0608C44.6879 45.1469 44.7992 45.1975 44.917 45.2016H49.0127C49.1305 45.1975 49.2418 45.1469 49.3223 45.0608C49.4028 44.9747 49.4459 44.8602 49.442 44.7424V42.4285C49.4459 42.3107 49.4028 42.1962 49.3223 42.1101C49.2418 42.024 49.1305 41.9734 49.0127 41.9692Z" fill="#D9E2E9"/>
<path d="M49.0127 45.5379H44.9169C44.7101 45.5336 44.5134 45.4474 44.3699 45.2983C44.2265 45.1492 44.148 44.9493 44.1517 44.7424V42.4288C44.148 42.2219 44.2265 42.022 44.3699 41.8729C44.5134 41.7238 44.7101 41.6376 44.9169 41.6333H49.0127C49.2196 41.6376 49.4163 41.7238 49.5597 41.8729C49.7032 42.022 49.7817 42.2219 49.778 42.4288V44.7424C49.7817 44.9493 49.7032 45.1492 49.5597 45.2983C49.4163 45.4474 49.2196 45.5336 49.0127 45.5379ZM44.9169 42.3055C44.8666 42.3055 44.8236 42.3619 44.8236 42.4291V44.7427C44.8236 44.8099 44.8662 44.8663 44.9169 44.8663H49.0127C49.0634 44.8663 49.1061 44.8099 49.1061 44.7427V42.4288C49.1061 42.3616 49.0634 42.3052 49.0127 42.3052L44.9169 42.3055Z" fill="#2F3A5A"/>
<path d="M56.1632 41.9692H52.0664C51.9486 41.9734 51.8373 42.024 51.7568 42.1101C51.6763 42.1962 51.6333 42.3107 51.6371 42.4285V44.7424C51.6333 44.8602 51.6763 44.9747 51.7568 45.0608C51.8373 45.1469 51.9486 45.1975 52.0664 45.2016H56.1621C56.2799 45.1975 56.3913 45.1469 56.4717 45.0608C56.5522 44.9747 56.5953 44.8602 56.5915 44.7424V42.4285C56.5953 42.3108 56.5524 42.1965 56.4721 42.1104C56.3918 42.0244 56.2808 41.9736 56.1632 41.9692Z" fill="#D9E2E9"/>
<path d="M56.1632 45.5376H52.0664C51.8595 45.5333 51.6628 45.4471 51.5194 45.298C51.3759 45.1489 51.2975 44.949 51.3011 44.7421V42.4285C51.2975 42.2216 51.3761 42.0218 51.5195 41.8728C51.6629 41.7237 51.8596 41.6376 52.0664 41.6333H56.1622C56.369 41.6376 56.5658 41.7238 56.7092 41.8729C56.8526 42.022 56.9311 42.2219 56.9274 42.4288V44.7424C56.931 44.9491 56.8527 45.1487 56.7094 45.2978C56.5662 45.4468 56.3698 45.533 56.1632 45.5376ZM52.0664 42.3052C52.016 42.3052 51.973 42.3616 51.973 42.4288V44.7424C51.973 44.8096 52.0157 44.866 52.0664 44.866H56.1622C56.2126 44.866 56.2556 44.8096 56.2556 44.7424V42.4285C56.2556 42.3613 56.2129 42.3048 56.1622 42.3048L52.0664 42.3052Z" fill="#2F3A5A"/>
<path d="M34.7119 47.6138H30.6161C30.4984 47.6179 30.387 47.6685 30.3065 47.7546C30.2261 47.8407 30.183 47.9552 30.1868 48.073V50.3869C30.183 50.5047 30.2261 50.6192 30.3065 50.7053C30.387 50.7914 30.4984 50.842 30.6161 50.8462H34.7119C34.8297 50.842 34.941 50.7914 35.0215 50.7053C35.102 50.6192 35.145 50.5047 35.1412 50.3869V48.073C35.145 47.9552 35.102 47.8407 35.0215 47.7546C34.941 47.6685 34.8297 47.6179 34.7119 47.6138Z" fill="#D9E2E9"/>
<path d="M34.7119 51.1821H30.6162C30.4093 51.1778 30.2127 51.0917 30.0692 50.9426C29.9258 50.7936 29.8473 50.5938 29.8509 50.3869V48.073C29.8473 47.8662 29.9258 47.6664 30.0692 47.5173C30.2127 47.3683 30.4093 47.2822 30.6162 47.2778H34.7119C34.9187 47.2822 35.1154 47.3683 35.2588 47.5173C35.4023 47.6664 35.4808 47.8662 35.4772 48.073V50.3869C35.4808 50.5938 35.4023 50.7936 35.2588 50.9426C35.1154 51.0917 34.9187 51.1778 34.7119 51.1821ZM30.6162 47.9497C30.5658 47.9497 30.5228 48.0061 30.5228 48.073V50.3869C30.5228 50.4541 30.5654 50.5102 30.6162 50.5102H34.7119C34.7623 50.5102 34.8053 50.4538 34.8053 50.3869V48.073C34.8053 48.0058 34.7626 47.9497 34.7119 47.9497H30.6162Z" fill="#2F3A5A"/>
<path d="M41.8623 47.6138H37.7666C37.6488 47.6179 37.5375 47.6685 37.457 47.7546C37.3765 47.8407 37.3335 47.9552 37.3373 48.073V50.3869C37.3335 50.5047 37.3765 50.6192 37.457 50.7053C37.5375 50.7914 37.6488 50.842 37.7666 50.8462H41.8623C41.9799 50.8418 42.091 50.791 42.1713 50.705C42.2516 50.6189 42.2945 50.5046 42.2907 50.3869V48.073C42.2945 47.9554 42.2516 47.841 42.1713 47.755C42.091 47.6689 41.9799 47.6181 41.8623 47.6138Z" fill="#D9E2E9"/>
<path d="M41.8623 51.1821H37.7665C37.5597 51.1778 37.3631 51.0917 37.2196 50.9426C37.0762 50.7936 36.9977 50.5938 37.0013 50.3869V48.073C36.9977 47.8662 37.0762 47.6664 37.2196 47.5173C37.3631 47.3683 37.5597 47.2822 37.7665 47.2778H41.8623C42.0689 47.2824 42.2653 47.3687 42.4085 47.5177C42.5518 47.6667 42.6301 47.8663 42.6265 48.073V50.3869C42.6301 50.5936 42.5518 50.7933 42.4085 50.9423C42.2653 51.0913 42.0689 51.1775 41.8623 51.1821ZM37.7665 47.9497C37.7162 47.9497 37.6732 48.0061 37.6732 48.073V50.3869C37.6732 50.4541 37.7158 50.5102 37.7665 50.5102H41.8623C41.9127 50.5102 41.9557 50.4538 41.9557 50.3869V48.073C41.9557 48.0058 41.913 47.9497 41.8623 47.9497H37.7665Z" fill="#2F3A5A"/>
<path d="M49.0127 47.6138H44.917C44.7992 47.6179 44.6879 47.6685 44.6074 47.7546C44.5269 47.8407 44.4839 47.9552 44.4877 48.073V50.3869C44.4839 50.5047 44.5269 50.6192 44.6074 50.7053C44.6879 50.7914 44.7992 50.842 44.917 50.8462H49.0127C49.1305 50.842 49.2418 50.7914 49.3223 50.7053C49.4028 50.6192 49.4459 50.5047 49.442 50.3869V48.073C49.4459 47.9552 49.4028 47.8407 49.3223 47.7546C49.2418 47.6685 49.1305 47.6179 49.0127 47.6138Z" fill="#D9E2E9"/>
<path d="M49.0128 51.1821H44.917C44.7102 51.1778 44.5135 51.0917 44.3701 50.9426C44.2266 50.7936 44.1481 50.5938 44.1517 50.3869V48.073C44.1481 47.8662 44.2266 47.6664 44.3701 47.5173C44.5135 47.3683 44.7102 47.2822 44.917 47.2778H49.0128C49.2196 47.2822 49.4162 47.3683 49.5597 47.5173C49.7031 47.6664 49.7816 47.8662 49.778 48.073V50.3869C49.7816 50.5938 49.7031 50.7936 49.5597 50.9426C49.4162 51.0917 49.2196 51.1778 49.0128 51.1821ZM44.917 47.9497C44.8666 47.9497 44.8236 48.0061 44.8236 48.073V50.3869C44.8236 50.4541 44.8663 50.5102 44.917 50.5102H49.0128C49.0635 50.5102 49.1062 50.4538 49.1062 50.3869V48.073C49.1062 48.0058 49.0635 47.9497 49.0128 47.9497H44.917Z" fill="#2F3A5A"/>
<path d="M56.1632 47.6138H52.0664C51.9486 47.6179 51.8373 47.6685 51.7568 47.7546C51.6763 47.8407 51.6333 47.9552 51.6371 48.073V50.3869C51.6333 50.5047 51.6763 50.6192 51.7568 50.7053C51.8373 50.7914 51.9486 50.842 52.0664 50.8462H56.1621C56.2799 50.842 56.3913 50.7914 56.4717 50.7053C56.5522 50.6192 56.5953 50.5047 56.5915 50.3869V48.073C56.5953 47.9554 56.5524 47.841 56.4721 47.755C56.3918 47.6689 56.2808 47.6181 56.1632 47.6138Z" fill="#D9E2E9"/>
<path d="M56.1632 51.1821H52.0664C51.8596 51.1778 51.6629 51.0917 51.5195 50.9426C51.3761 50.7936 51.2975 50.5938 51.3011 50.3869V48.073C51.2975 47.8662 51.3761 47.6664 51.5195 47.5173C51.6629 47.3683 51.8596 47.2822 52.0664 47.2778H56.1621C56.369 47.2822 56.5656 47.3683 56.7091 47.5173C56.8525 47.6664 56.931 47.8662 56.9274 48.073V50.3869C56.931 50.5936 56.8526 50.7933 56.7094 50.9423C56.5662 51.0913 56.3698 51.1775 56.1632 51.1821ZM52.0664 47.9497C52.016 47.9497 51.973 48.0061 51.973 48.073V50.3869C51.973 50.4541 52.0157 50.5102 52.0664 50.5102H56.1621C56.2125 50.5102 56.2555 50.4538 56.2555 50.3869V48.073C56.2555 48.0058 56.2129 47.9497 56.1621 47.9497H52.0664Z" fill="#2F3A5A"/>
<path d="M34.7118 53.2588H30.6161C30.4983 53.2629 30.387 53.3136 30.3065 53.3997C30.226 53.4857 30.1829 53.6002 30.1868 53.718V56.032C30.1846 56.0904 30.1941 56.1487 30.2145 56.2035C30.235 56.2584 30.266 56.3086 30.3059 56.3514C30.3457 56.3942 30.3937 56.4287 30.4469 56.453C30.5001 56.4773 30.5576 56.4908 30.6161 56.4929H34.7118C34.8296 56.4887 34.9409 56.4381 35.0214 56.352C35.1019 56.2659 35.145 56.1514 35.1412 56.0336V53.718C35.145 53.6002 35.1019 53.4857 35.0214 53.3997C34.9409 53.3136 34.8296 53.2629 34.7118 53.2588Z" fill="#D9E2E9"/>
<path d="M34.7119 56.8288H30.6162C30.4093 56.8245 30.2127 56.7384 30.0692 56.5893C29.9258 56.4403 29.8473 56.2405 29.8509 56.0336V53.718C29.8473 53.5112 29.9258 53.3114 30.0692 53.1623C30.2127 53.0133 30.4093 52.9272 30.6162 52.9229H34.7119C34.9187 52.9272 35.1154 53.0133 35.2588 53.1623C35.4023 53.3114 35.4808 53.5112 35.4772 53.718V56.032C35.4812 56.2391 35.4029 56.4393 35.2594 56.5887C35.1159 56.7381 34.919 56.8245 34.7119 56.8288ZM30.6162 53.5947C30.5658 53.5947 30.5228 53.6512 30.5228 53.718V56.032C30.5228 56.0991 30.5654 56.1552 30.6162 56.1552H34.7119C34.7623 56.1552 34.8053 56.0988 34.8053 56.032V53.718C34.8053 53.6508 34.7626 53.5947 34.7119 53.5947H30.6162Z" fill="#2F3A5A"/>
<path d="M41.8623 53.2588H37.7665C37.6488 53.2629 37.5374 53.3136 37.4569 53.3997C37.3765 53.4857 37.3334 53.6002 37.3372 53.718V56.032C37.3351 56.0904 37.3445 56.1487 37.365 56.2035C37.3854 56.2584 37.4165 56.3086 37.4563 56.3514C37.4962 56.3942 37.5441 56.4287 37.5973 56.453C37.6506 56.4773 37.7081 56.4908 37.7665 56.4929H41.8623C41.9802 56.4885 42.0915 56.4375 42.1718 56.3511C42.2521 56.2646 42.2949 56.1499 42.2906 56.032V53.718C42.2944 53.6004 42.2515 53.4861 42.1712 53.4C42.091 53.3139 41.9799 53.2632 41.8623 53.2588Z" fill="#D9E2E9"/>
<path d="M41.8623 56.8288H37.7665C37.5597 56.8245 37.3631 56.7384 37.2196 56.5893C37.0762 56.4403 36.9977 56.2405 37.0013 56.0336V53.718C36.9977 53.5112 37.0762 53.3114 37.2196 53.1623C37.3631 53.0133 37.5597 52.9272 37.7665 52.9229H41.8623C42.0689 52.9274 42.2653 53.0137 42.4085 53.1627C42.5518 53.3117 42.6301 53.5114 42.6265 53.718V56.032C42.6306 56.2389 42.5524 56.439 42.4091 56.5884C42.2659 56.7378 42.0692 56.8242 41.8623 56.8288ZM37.7665 53.5947C37.7162 53.5947 37.6732 53.6512 37.6732 53.718V56.032C37.6732 56.0991 37.7158 56.1552 37.7665 56.1552H41.8623C41.9127 56.1552 41.9557 56.0988 41.9557 56.032V53.718C41.9557 53.6508 41.913 53.5947 41.8623 53.5947H37.7665Z" fill="#2F3A5A"/>
<path d="M49.0127 53.2588H44.917C44.7992 53.2629 44.6879 53.3136 44.6074 53.3997C44.5269 53.4857 44.4838 53.6002 44.4877 53.718V56.032C44.4855 56.0904 44.495 56.1487 44.5154 56.2035C44.5359 56.2584 44.5669 56.3086 44.6068 56.3514C44.6466 56.3942 44.6946 56.4287 44.7478 56.453C44.801 56.4773 44.8585 56.4908 44.917 56.4929H49.0127C49.1305 56.4887 49.2418 56.4381 49.3223 56.352C49.4028 56.2659 49.4459 56.1514 49.4421 56.0336V53.718C49.4459 53.6002 49.4028 53.4857 49.3223 53.3997C49.2418 53.3136 49.1305 53.2629 49.0127 53.2588Z" fill="#D9E2E9"/>
<path d="M49.0127 56.8288H44.917C44.7102 56.8245 44.5135 56.7384 44.3701 56.5893C44.2266 56.4403 44.1481 56.2405 44.1517 56.0336V53.718C44.1481 53.5112 44.2266 53.3114 44.3701 53.1623C44.5135 53.0133 44.7102 52.9272 44.917 52.9229H49.0127C49.2195 52.9272 49.4162 53.0133 49.5596 53.1623C49.7031 53.3114 49.7816 53.5112 49.778 53.718V56.032C49.7821 56.2391 49.7037 56.4393 49.5602 56.5887C49.4168 56.7381 49.2198 56.8245 49.0127 56.8288ZM44.917 53.5947C44.8666 53.5947 44.8236 53.6512 44.8236 53.718V56.032C44.8236 56.0991 44.8663 56.1552 44.917 56.1552H49.0127C49.0635 56.1552 49.1061 56.0988 49.1061 56.032V53.718C49.1061 53.6508 49.0635 53.5947 49.0127 53.5947H44.917Z" fill="#2F3A5A"/>
<path d="M56.1632 53.2588H52.0664C51.9486 53.2629 51.8373 53.3136 51.7568 53.3997C51.6763 53.4857 51.6333 53.6002 51.6371 53.718V56.032C51.635 56.0904 51.6444 56.1487 51.6648 56.2035C51.6853 56.2584 51.7163 56.3086 51.7562 56.3514C51.7961 56.3942 51.844 56.4287 51.8972 56.453C51.9504 56.4773 52.0079 56.4908 52.0664 56.4929H56.1622C56.2799 56.4887 56.3913 56.4381 56.4718 56.352C56.5522 56.2659 56.5953 56.1514 56.5915 56.0336V53.718C56.5953 53.6004 56.5524 53.4861 56.4721 53.4C56.3918 53.3139 56.2808 53.2632 56.1632 53.2588Z" fill="#D9E2E9"/>
<path d="M56.1632 56.8288H52.0664C51.8596 56.8245 51.6629 56.7384 51.5195 56.5893C51.3761 56.4403 51.2975 56.2405 51.3011 56.0336V53.718C51.2975 53.5112 51.3761 53.3114 51.5195 53.1623C51.6629 53.0133 51.8596 52.9272 52.0664 52.9229H56.1622C56.369 52.9272 56.5656 53.0133 56.7091 53.1623C56.8525 53.3114 56.931 53.5112 56.9274 53.718V56.032C56.9315 56.2389 56.8533 56.439 56.71 56.5884C56.5667 56.7378 56.3701 56.8242 56.1632 56.8288ZM52.0664 53.5947C52.016 53.5947 51.973 53.6512 51.973 53.718V56.032C51.973 56.0991 52.0157 56.1552 52.0664 56.1552H56.1622C56.2125 56.1552 56.2555 56.0988 56.2555 56.032V53.718C56.2555 53.6508 56.2129 53.5947 56.1622 53.5947H52.0664Z" fill="#2F3A5A"/>
<path d="M34.7119 58.9038H30.6161C30.4984 58.9079 30.387 58.9586 30.3065 59.0447C30.2261 59.1308 30.183 59.2452 30.1868 59.363V61.677C30.183 61.7948 30.2261 61.9093 30.3065 61.9953C30.387 62.0814 30.4984 62.1321 30.6161 62.1362H34.7119C34.8297 62.1321 34.941 62.0814 35.0215 61.9953C35.102 61.9093 35.145 61.7948 35.1412 61.677V59.363C35.145 59.2452 35.102 59.1308 35.0215 59.0447C34.941 58.9586 34.8297 58.9079 34.7119 58.9038Z" fill="#D9E2E9"/>
<path d="M34.7119 62.4725H30.6162C30.4093 62.4681 30.2126 62.382 30.0691 62.2329C29.9257 62.0838 29.8472 61.8839 29.8509 61.677V59.363C29.8473 59.1562 29.9258 58.9564 30.0692 58.8074C30.2127 58.6583 30.4094 58.5722 30.6162 58.5679H34.7119C34.9187 58.5722 35.1154 58.6583 35.2588 58.8074C35.4023 58.9564 35.4808 59.1562 35.4772 59.363V61.677C35.4809 61.8839 35.4024 62.0838 35.2589 62.2329C35.1155 62.382 34.9188 62.4681 34.7119 62.4725ZM30.6162 59.2397C30.5658 59.2397 30.5228 59.2962 30.5228 59.363V61.677C30.5228 61.7442 30.5654 61.8006 30.6162 61.8006H34.7119C34.7623 61.8006 34.8053 61.7442 34.8053 61.677V59.363C34.8053 59.2958 34.7626 59.2397 34.7119 59.2397H30.6162Z" fill="#2F3A5A"/>
<path d="M41.8623 58.9038H37.7666C37.6488 58.9079 37.5375 58.9586 37.457 59.0447C37.3765 59.1308 37.3335 59.2452 37.3373 59.363V61.677C37.3335 61.7948 37.3765 61.9093 37.457 61.9953C37.5375 62.0814 37.6488 62.1321 37.7666 62.1362H41.8623C41.9801 62.1321 42.0915 62.0814 42.1719 61.9953C42.2524 61.9093 42.2955 61.7948 42.2917 61.677V59.363C42.2955 59.2452 42.2524 59.1308 42.1719 59.0447C42.0915 58.9586 41.9801 58.9079 41.8623 58.9038Z" fill="#D9E2E9"/>
<path d="M41.8611 62.9046H37.7654C37.5585 62.9003 37.3618 62.8141 37.2184 62.665C37.0749 62.5159 36.9964 62.316 37.0001 62.1091V59.7952C36.9965 59.5883 37.075 59.3885 37.2185 59.2395C37.3619 59.0904 37.5586 59.0043 37.7654 59H41.8611C42.068 59.0043 42.2646 59.0904 42.4081 59.2395C42.5515 59.3885 42.63 59.5883 42.6264 59.7952V62.1091C42.6301 62.316 42.5516 62.5159 42.4082 62.665C42.2647 62.8141 42.068 62.9003 41.8611 62.9046ZM37.7654 59.6719C37.715 59.6719 37.672 59.7283 37.672 59.7952V62.1091C37.672 62.1763 37.7147 62.2327 37.7654 62.2327H41.8611C41.9115 62.2327 41.9545 62.1763 41.9545 62.1091V59.7952C41.9545 59.728 41.9119 59.6719 41.8611 59.6719H37.7654Z" fill="#2F3A5A"/>
<path d="M49.0127 58.9038H44.917C44.7992 58.9079 44.6879 58.9586 44.6074 59.0447C44.5269 59.1308 44.4839 59.2452 44.4877 59.363V61.677C44.4839 61.7948 44.5269 61.9093 44.6074 61.9953C44.6879 62.0814 44.7992 62.1321 44.917 62.1362H49.0127C49.1305 62.1321 49.2418 62.0814 49.3223 61.9953C49.4028 61.9093 49.4459 61.7948 49.442 61.677V59.363C49.4459 59.2452 49.4028 59.1308 49.3223 59.0447C49.2418 58.9586 49.1305 58.9079 49.0127 58.9038Z" fill="#D9E2E9"/>
<path d="M49.0127 62.4725H44.9169C44.7101 62.4681 44.5134 62.382 44.3699 62.2329C44.2265 62.0838 44.148 61.8839 44.1517 61.677V59.363C44.1481 59.1562 44.2266 58.9564 44.37 58.8074C44.5135 58.6583 44.7101 58.5722 44.9169 58.5679H49.0127C49.2195 58.5722 49.4162 58.6583 49.5596 58.8074C49.703 58.9564 49.7816 59.1562 49.778 59.363V61.677C49.7817 61.8839 49.7032 62.0838 49.5597 62.2329C49.4163 62.382 49.2196 62.4681 49.0127 62.4725ZM44.9169 59.2397C44.8666 59.2397 44.8236 59.2962 44.8236 59.363V61.677C44.8236 61.7442 44.8662 61.8006 44.9169 61.8006H49.0127C49.0634 61.8006 49.1061 61.7442 49.1061 61.677V59.363C49.1061 59.2958 49.0634 59.2397 49.0127 59.2397H44.9169Z" fill="#2F3A5A"/>
<path d="M56.1632 58.9038H52.0664C51.9486 58.9079 51.8373 58.9586 51.7568 59.0447C51.6763 59.1308 51.6333 59.2452 51.6371 59.363V61.677C51.6331 61.7949 51.6761 61.9095 51.7566 61.9958C51.8371 62.082 51.9485 62.1328 52.0664 62.1369H56.1622C56.28 62.1328 56.3913 62.0821 56.4718 61.996C56.5523 61.9099 56.5953 61.7954 56.5915 61.6777V59.3637C56.5955 59.246 56.5527 59.1315 56.4724 59.0453C56.3921 58.9591 56.2809 58.9082 56.1632 58.9038Z" fill="#D9E2E9"/>
<path d="M56.1632 62.4725H52.0664C51.8595 62.4681 51.6628 62.382 51.5194 62.2329C51.3759 62.0838 51.2975 61.8839 51.3011 61.677V59.363C51.2975 59.1562 51.3761 58.9564 51.5195 58.8074C51.6629 58.6583 51.8596 58.5722 52.0664 58.5679H56.1622C56.369 58.5722 56.5656 58.6583 56.7091 58.8074C56.8525 58.9564 56.931 59.1562 56.9274 59.363V61.677C56.9311 61.8837 56.8528 62.0834 56.7096 62.2325C56.5663 62.3816 56.3699 62.4679 56.1632 62.4725ZM52.0664 59.2394C52.016 59.2394 51.973 59.2958 51.973 59.3627V61.6766C51.973 61.7438 52.0157 61.8003 52.0664 61.8003H56.1622C56.2126 61.8003 56.2556 61.7438 56.2556 61.6766V59.3627C56.2556 59.2955 56.2129 59.2394 56.1622 59.2394H52.0664Z" fill="#2F3A5A"/>
<g opacity="0.5">
<path opacity="0.5" d="M44.6476 28.061L40.1067 36.1941H35.9844L40.5256 28.061H44.6476Z" fill="white"/>
<path opacity="0.5" d="M49.1845 28.061L44.6433 36.1941H42.58L47.1212 28.061H49.1845Z" fill="white"/>
</g>
<path d="M55.0845 36.5305H31.9142C31.8251 36.5305 31.7397 36.4951 31.6767 36.4321C31.6137 36.3691 31.5783 36.2837 31.5783 36.1946V28.0615C31.5783 27.9724 31.6137 27.887 31.6767 27.824C31.7397 27.761 31.8251 27.7256 31.9142 27.7256H55.0845C55.1736 27.7256 55.2591 27.761 55.3221 27.824C55.3851 27.887 55.4205 27.9724 55.4205 28.0615V36.1946C55.4205 36.2837 55.3851 36.3691 55.3221 36.4321C55.2591 36.4951 55.1736 36.5305 55.0845 36.5305ZM32.2502 35.8586H54.7486V28.3975H32.2502V35.8586Z" fill="#2F3A5A"/>
</g>
<defs>
<clipPath id="clip0_190_143">
<rect width="43" height="43" fill="white" transform="translate(22 23)"/>
</clipPath>
</defs>
</svg>
