<svg width="37" height="37" viewBox="0 0 37 37" fill="none" xmlns="http://www.w3.org/2000/svg">
<g id="cube 1" clip-path="url(#clip0_301_5598)">
<g id="Group">
<path id="Vector" d="M17.9735 13.9339C17.9735 14.0863 18.034 14.2324 18.1418 14.3402C18.2496 14.4479 18.3957 14.5085 18.5481 14.5085C18.7005 14.5085 18.8466 14.4479 18.9544 14.3402C19.0622 14.2324 19.1227 14.0863 19.1227 13.9339V12.7847C19.1227 12.6323 19.0622 12.4861 18.9544 12.3784C18.8466 12.2706 18.7005 12.2101 18.5481 12.2101C18.3957 12.2101 18.2496 12.2706 18.1418 12.3784C18.034 12.4861 17.9735 12.6323 17.9735 12.7847V13.9339Z" fill="white"/>
<path id="Vector_2" d="M18.5481 15.0831C18.3957 15.0831 18.2496 15.1437 18.1418 15.2514C18.034 15.3592 17.9735 15.5053 17.9735 15.6577V16.8069C17.9735 16.9593 18.034 17.1055 18.1418 17.2132C18.2496 17.321 18.3957 17.3815 18.5481 17.3815C18.7005 17.3815 18.8466 17.321 18.9544 17.2132C19.0622 17.1055 19.1227 16.9593 19.1227 16.8069V15.6577C19.1227 15.5053 19.0622 15.3592 18.9544 15.2514C18.8466 15.1437 18.7005 15.0831 18.5481 15.0831Z" fill="white"/>
<path id="Vector_3" d="M21.98 23.702L20.947 23.1975C20.8791 23.1633 20.8051 23.143 20.7292 23.1376C20.6534 23.1323 20.5772 23.1421 20.5052 23.1664C20.4332 23.1907 20.3667 23.229 20.3095 23.2792C20.2524 23.3294 20.2059 23.3904 20.1725 23.4587C20.1392 23.5271 20.1197 23.6013 20.1152 23.6772C20.1108 23.7531 20.1215 23.8291 20.1466 23.9009C20.1717 23.9726 20.2109 24.0387 20.2617 24.0952C20.3126 24.1517 20.3742 24.1976 20.4429 24.2301L21.4755 24.7342C21.5435 24.7692 21.6177 24.7903 21.694 24.7962C21.7702 24.8021 21.8468 24.7927 21.9194 24.7686C21.992 24.7446 22.059 24.7062 22.1165 24.6559C22.1741 24.6056 22.221 24.5443 22.2546 24.4756C22.2882 24.4069 22.3077 24.3322 22.3121 24.2559C22.3164 24.1796 22.3054 24.1031 22.2799 24.0311C22.2543 23.959 22.2146 23.8928 22.1631 23.8363C22.1116 23.7798 22.0493 23.7341 21.98 23.702Z" fill="white"/>
<path id="Vector_4" d="M24.5617 24.9621L23.529 24.4579C23.4612 24.4248 23.3875 24.4054 23.3122 24.4007C23.2369 24.3961 23.1614 24.4064 23.09 24.4309C22.9459 24.4805 22.8274 24.5852 22.7605 24.7222C22.6937 24.8591 22.6839 25.017 22.7335 25.1612C22.7831 25.3053 22.8878 25.4238 23.0248 25.4907L24.0575 25.9949C24.1944 26.0617 24.3523 26.0715 24.4965 26.0219C24.6406 25.9723 24.7591 25.8676 24.826 25.7306C24.8928 25.5936 24.9025 25.4357 24.853 25.2916C24.8034 25.1475 24.6986 25.029 24.5617 24.9621Z" fill="white"/>
<path id="Vector_5" d="M27.1433 26.223L26.1106 25.7188C26.0427 25.6857 25.9691 25.6662 25.8938 25.6616C25.8184 25.657 25.7429 25.6672 25.6716 25.6918C25.5275 25.7413 25.4089 25.8461 25.3421 25.9831C25.2752 26.12 25.2655 26.2779 25.315 26.422C25.3646 26.5662 25.4694 26.6847 25.6063 26.7515L26.639 27.2558C26.776 27.3226 26.9339 27.3323 27.078 27.2828C27.2221 27.2332 27.3407 27.1284 27.4075 26.9915C27.4744 26.8545 27.4841 26.6966 27.4345 26.5525C27.385 26.4084 27.2802 26.2898 27.1433 26.223Z" fill="white"/>
<path id="Vector_6" d="M36.043 30.6582L30.6145 27.941V13.3593C30.6145 13.2526 30.5848 13.1479 30.5287 13.0571C30.4727 12.9663 30.3925 12.8929 30.2971 12.845L19.1226 7.25854V3.5912C19.1226 3.4388 19.0621 3.29265 18.9544 3.1849C18.8466 3.07714 18.7004 3.0166 18.5481 3.0166C18.3957 3.0166 18.2495 3.07714 18.1418 3.1849C18.034 3.29265 17.9735 3.4388 17.9735 3.5912V7.25854L6.79905 12.845C6.70364 12.8929 6.62342 12.9663 6.56736 13.0571C6.5113 13.1479 6.4816 13.2526 6.48159 13.3593V27.9676L1.05526 30.6567C0.987637 30.6902 0.927266 30.7367 0.877599 30.7935C0.827933 30.8503 0.789943 30.9164 0.7658 30.9878C0.741656 31.0593 0.731831 31.1349 0.736886 31.2102C0.741941 31.2855 0.761777 31.359 0.795261 31.4267C0.828745 31.4943 0.875221 31.5547 0.932037 31.6043C0.988852 31.654 1.05489 31.692 1.12639 31.7161C1.19789 31.7403 1.27344 31.7501 1.34873 31.7451C1.42403 31.74 1.49759 31.7202 1.56522 31.6867L7.0806 28.953L18.2909 34.5589C18.3708 34.5986 18.4588 34.6193 18.5481 34.6193C18.6373 34.6193 18.7253 34.5986 18.8052 34.5589L30.0428 28.9401L35.5287 31.6852C35.6082 31.7254 35.6961 31.7463 35.7851 31.7463C35.9145 31.7463 36.0401 31.7027 36.1416 31.6224C36.2431 31.5422 36.3145 31.4301 36.3444 31.3042C36.3742 31.1783 36.3607 31.046 36.306 30.9288C36.2513 30.8115 36.1586 30.7162 36.043 30.6582ZM17.9735 33.1153L8.37056 28.3138L8.98322 28.01C9.05232 27.9774 9.11423 27.9313 9.16531 27.8745C9.21639 27.8177 9.25563 27.7512 9.28073 27.6791C9.30582 27.6069 9.31627 27.5305 9.31147 27.4542C9.30666 27.3779 9.28669 27.3034 9.25273 27.235C9.21877 27.1665 9.1715 27.1055 9.11368 27.0556C9.05587 27.0056 8.98867 26.9677 8.91602 26.944C8.84338 26.9204 8.76674 26.9114 8.69059 26.9177C8.61444 26.924 8.54032 26.9455 8.47255 26.9808L7.63077 27.3981V14.2887L17.9735 19.46V33.1153ZM18.5481 18.4631L8.34111 13.3593L17.9735 8.54276V11.0609C17.9735 11.2133 18.034 11.3595 18.1418 11.4672C18.2495 11.575 18.3957 11.6355 18.5481 11.6355C18.7004 11.6355 18.8466 11.575 18.9544 11.4672C19.0621 11.3595 19.1226 11.2133 19.1226 11.0609V8.54276L28.755 13.3593L18.5481 18.4631ZM29.4653 27.3657L28.6975 26.9815C28.5612 26.9133 28.4034 26.902 28.2588 26.9502C28.1142 26.9983 27.9947 27.1019 27.9265 27.2382C27.8583 27.3745 27.847 27.5323 27.8952 27.6769C27.9434 27.8215 28.047 27.9411 28.1833 28.0093L28.7586 28.2973L19.1226 33.1153V19.46L29.4653 14.2887V27.3657Z" fill="white"/>
<path id="Vector_7" d="M15.4405 24.7927C15.5277 24.7926 15.6136 24.7726 15.6919 24.7342L16.7245 24.2301C16.7932 24.1976 16.8548 24.1517 16.9056 24.0952C16.9565 24.0387 16.9956 23.9726 17.0208 23.9009C17.0459 23.8291 17.0566 23.7531 17.0521 23.6772C17.0477 23.6013 17.0282 23.5271 16.9949 23.4587C16.9615 23.3904 16.9149 23.3294 16.8578 23.2792C16.8007 23.229 16.7342 23.1907 16.6622 23.1664C16.5901 23.1421 16.514 23.1323 16.4382 23.1376C16.3623 23.143 16.2883 23.1633 16.2204 23.1975L15.188 23.702C15.0712 23.7589 14.9771 23.8538 14.9212 23.9712C14.8652 24.0885 14.8507 24.2214 14.88 24.348C14.9093 24.4746 14.9807 24.5876 15.0825 24.6684C15.1843 24.7493 15.3105 24.7932 15.4405 24.7931V24.7927Z" fill="white"/>
<path id="Vector_8" d="M12.8588 26.0532C12.946 26.0531 13.0319 26.0332 13.1102 25.9949L14.1429 25.4907C14.2799 25.4238 14.3846 25.3053 14.4342 25.1612C14.4838 25.017 14.474 24.8591 14.4072 24.7222C14.3403 24.5852 14.2218 24.4805 14.0777 24.4309C13.9336 24.3813 13.7757 24.3911 13.6387 24.4579L12.606 24.9621C12.4892 25.0191 12.3951 25.114 12.3391 25.2313C12.2832 25.3487 12.2687 25.4815 12.298 25.6082C12.3273 25.7348 12.3987 25.8478 12.5005 25.9286C12.6023 26.0094 12.7285 26.0534 12.8585 26.0532H12.8588Z" fill="white"/>
<path id="Vector_9" d="M10.277 27.3138C10.3642 27.3137 10.4501 27.2938 10.5284 27.2555L11.5611 26.7513C11.6981 26.6844 11.8029 26.5659 11.8524 26.4218C11.902 26.2777 11.8923 26.1198 11.8254 25.9828C11.7585 25.8459 11.64 25.7411 11.4959 25.6915C11.3518 25.642 11.1939 25.6517 11.0569 25.7185L10.0242 26.2227C9.90737 26.2797 9.81329 26.3746 9.75735 26.492C9.7014 26.6093 9.6869 26.7422 9.71622 26.8688C9.74553 26.9955 9.81692 27.1084 9.91873 27.1893C10.0205 27.2701 10.1468 27.314 10.2768 27.3138H10.277Z" fill="white"/>
</g>
</g>
<defs>
<clipPath id="clip0_301_5598">
<rect width="36.774" height="36.774" fill="white" transform="translate(0.161011 0.143677)"/>
</clipPath>
</defs>
</svg>
