<svg width="38.000000" height="38.000000" viewBox="0 0 38 38" fill="none" xmlns="http://www.w3.org/2000/svg" xmlns:xlink="http://www.w3.org/1999/xlink">
	<desc>
			Created with Pixso.
	</desc>
	<defs>
		<clipPath id="clip500_116">
			<rect id="fire 1" width="38.000000" height="38.000000" fill="white"/>
		</clipPath>
	</defs>
	<g clip-path="url(#clip500_116)">
		<path id="Vector" d="M19.7637 35.9999C18.5256 36.0047 17.2965 35.7825 16.1328 35.3436C11.9611 33.7558 9.17822 31.2552 7.8623 27.9119C5.70251 22.423 8.26697 16.703 8.37683 16.4626C8.41772 16.3731 8.48401 16.2988 8.56677 16.2495C8.64941 16.2002 8.74475 16.1783 8.83972 16.1868C8.93469 16.1954 9.02502 16.2338 9.09839 16.2971C9.17175 16.3604 9.22473 16.4454 9.25024 16.5408C9.62634 17.6509 10.29 18.6317 11.1682 19.3755C12.2389 13.7954 16.9266 10.4186 17.1348 10.2704C20.1594 7.75623 17.6891 2.76093 17.6638 2.71088C17.614 2.61188 17.5985 2.49811 17.62 2.38861C17.6415 2.27917 17.6986 2.18079 17.7819 2.10999C17.8651 2.03918 17.9692 2.00037 18.0769 2C18.1844 1.99963 18.2888 2.03784 18.3726 2.10809C26.7024 9.12695 26.2234 16.1964 25.5511 19.1011C26.1769 18.5925 26.663 17.9221 26.9607 17.1571C27.2585 16.3922 27.3578 15.5594 27.2483 14.7421C27.2336 14.6334 27.2548 14.5228 27.3083 14.4283C27.3619 14.3337 27.4448 14.2608 27.5435 14.2214C27.6421 14.1819 27.7506 14.1783 27.8514 14.2112C27.9523 14.244 28.0394 14.3113 28.0988 14.4021C29.0027 15.8651 29.7366 17.4341 30.2852 19.0763C31.0085 21.2273 31.1866 23.5355 30.8022 25.7786C30.4178 28.0218 29.4839 30.1245 28.0903 31.8842L27.9902 32.011C26.9882 33.266 25.7307 34.2747 24.3082 34.9644C22.8857 35.6542 21.3336 36.0078 19.7637 35.9999ZM16.4546 34.4314C17.5153 34.8311 18.6354 35.0332 19.7637 35.0284C21.1953 35.0358 22.6108 34.7136 23.9082 34.0851C25.2056 33.4565 26.3527 32.5371 27.267 31.3931L27.3606 31.2717C28.6532 29.6406 29.5198 27.6915 29.877 25.612C30.2341 23.5325 30.0699 21.3925 29.4 19.3979C29.0526 18.3714 28.6323 17.373 28.1427 16.4111C27.6281 19.3337 24.9351 20.6929 24.9023 20.7089C24.8152 20.7517 24.7174 20.7656 24.6224 20.7485C24.5273 20.7314 24.4398 20.6842 24.3716 20.6135C24.3033 20.5427 24.2578 20.4517 24.2413 20.3531C24.2249 20.2545 24.238 20.1529 24.2793 20.0624C24.427 19.733 27.6473 12.242 19.171 4.11029C19.7118 6.05664 20.035 9.10077 17.6876 11.0505C17.6096 11.1078 12.6417 14.6964 11.9634 20.3281C11.9532 20.4104 11.9229 20.4887 11.8754 20.5554C11.8278 20.6222 11.7644 20.6751 11.6915 20.7092C11.6187 20.7433 11.5385 20.7574 11.4589 20.7502C11.3792 20.743 11.3026 20.7148 11.2365 20.6681C10.2587 19.9482 9.43506 19.0258 8.8175 17.9591C8.20337 19.8248 7.25464 23.8079 8.73059 27.548C9.94397 30.6252 12.5425 32.9398 16.4541 34.429L16.4546 34.4314Z" fill-rule="nonzero" fill="#FFFFFF"/>
		<path id="Vector" d="M17.6932 34.9986C17.5768 34.9986 17.464 34.959 17.375 34.8868C11.0781 29.7783 15.5145 23.2455 15.5599 23.1804C15.6174 23.0977 15.7004 23.0345 15.7972 22.9996C15.8939 22.9647 15.9996 22.9599 16.0995 22.9858C16.1992 23.0118 16.288 23.0671 16.3534 23.1442C16.4187 23.2212 16.4573 23.316 16.4637 23.4153C16.4762 24.145 16.7483 24.8484 17.2346 25.4084C16.9783 23.6146 17.2507 21.7876 18.0209 20.1356C18.791 18.4835 20.0278 17.0729 21.5905 16.0645C21.6829 16.0128 21.7902 15.9913 21.8964 16.0032C22.0024 16.0151 22.1018 16.0599 22.1792 16.1307C22.2567 16.2015 22.3083 16.2947 22.3262 16.3961C22.344 16.4975 22.3273 16.6017 22.2783 16.6932C22.0057 17.1885 21.8687 17.7426 21.88 18.303C21.9056 18.9551 22.1206 19.5873 22.5007 20.1277L22.6984 20.4183C23.3531 21.3538 24.0625 22.2527 24.8231 23.1109C25.4152 23.8002 25.8888 24.5761 26.2261 25.4093C28.7026 30.3233 24.4471 34.1968 24.4056 34.2358C24.3091 34.3189 24.1825 34.3623 24.0531 34.3565C23.9237 34.3508 23.8019 34.2963 23.7137 34.2049C23.6256 34.1135 23.5784 33.9925 23.582 33.8679C23.5858 33.7432 23.6401 33.625 23.7335 33.5386C23.8883 33.3997 27.5015 30.086 25.3262 25.8036C25.3177 25.7867 25.3103 25.7694 25.304 25.7517C25.0045 25.0151 24.5856 24.3289 24.0626 23.7187C23.2776 22.8329 22.5457 21.9048 21.8701 20.939L21.6725 20.6484C21.1912 19.9589 20.9203 19.1532 20.8907 18.3229C20.8868 18.1376 20.8954 17.9522 20.9165 17.7679C19.4934 19.0629 17.4081 21.8198 18.3914 26.3281C18.4091 26.4089 18.4047 26.4929 18.3784 26.5715C18.3522 26.6501 18.3051 26.7209 18.2417 26.7767C18.1785 26.8325 18.1012 26.8715 18.0175 26.8898C17.9337 26.9082 17.8464 26.9052 17.7644 26.8812C17.2927 26.7075 16.8677 26.4341 16.5205 26.0813C16.1732 25.7284 15.9127 25.3051 15.7582 24.8425C14.8815 26.7637 13.8309 30.7684 18.0109 34.1606C18.0885 34.2234 18.144 34.3077 18.1702 34.402C18.1963 34.4963 18.1917 34.596 18.1569 34.6877C18.1219 34.7793 18.0587 34.8585 17.9757 34.9143C17.8926 34.9702 17.7936 35.0001 17.6923 35L17.6932 34.9986Z" fill-rule="nonzero" fill="#FFFFFF"/>
	</g>
</svg>
