<svg width="36.774048" height="36.773987" viewBox="0 0 36.774 36.774" fill="none" xmlns="http://www.w3.org/2000/svg" xmlns:xlink="http://www.w3.org/1999/xlink">
	<desc>
			Created with Pixso.
	</desc>
	<defs>
		<clipPath id="clip500_102">
			<rect id="fireplace 1" width="27.000000" height="27.000000" transform="translate(5.838867 5.856201)" fill="white"/>
		</clipPath>
		<clipPath id="clip301_5685">
			<rect id="cube 2" width="36.774002" height="36.774002" fill="white"/>
		</clipPath>
	</defs>
	<g clip-path="url(#clip301_5685)">
		<g clip-path="url(#clip500_102)">
			<path id="Vector" d="M31.1514 19.3562L7.52637 19.3562C6.59595 19.3562 5.83887 18.5991 5.83887 17.6687L5.83887 16.5437C5.83887 15.6133 6.59595 14.8562 7.52637 14.8562L31.1514 14.8562C32.0818 14.8562 32.8389 15.6133 32.8389 16.5437L32.8389 17.6687C32.8389 18.5991 32.0818 19.3562 31.1514 19.3562ZM7.52637 15.9812C7.21704 15.9812 6.96387 16.2332 6.96387 16.5437L6.96387 17.6687C6.96387 17.9792 7.21704 18.2312 7.52637 18.2312L31.1514 18.2312C31.4607 18.2312 31.7139 17.9792 31.7139 17.6687L31.7139 16.5437C31.7139 16.2332 31.4607 15.9812 31.1514 15.9812L7.52637 15.9812Z" fill-rule="nonzero" fill="#FFFFFF"/>
			<path id="Vector" d="M32.2764 32.8562L6.40137 32.8562C6.09082 32.8562 5.83887 32.6042 5.83887 32.2937C5.83887 31.9832 6.09082 31.7312 6.40137 31.7312L32.2764 31.7312C32.5869 31.7312 32.8389 31.9832 32.8389 32.2937C32.8389 32.6042 32.5869 32.8562 32.2764 32.8562Z" fill-rule="nonzero" fill="#FFFFFF"/>
			<path id="Vector" d="M8.65137 32.8562C8.34082 32.8562 8.08887 32.6042 8.08887 32.2937L8.08887 18.7937C8.08887 18.4832 8.34082 18.2312 8.65137 18.2312C8.96191 18.2312 9.21387 18.4832 9.21387 18.7937L9.21387 32.2937C9.21387 32.6042 8.96191 32.8562 8.65137 32.8562Z" fill-rule="nonzero" fill="#FFFFFF"/>
			<path id="Vector" d="M30.0264 32.8562C29.7158 32.8562 29.4639 32.6042 29.4639 32.2937L29.4639 18.7937C29.4639 18.4832 29.7158 18.2312 30.0264 18.2312C30.3369 18.2312 30.5889 18.4832 30.5889 18.7937L30.5889 32.2937C30.5889 32.6042 30.3369 32.8562 30.0264 32.8562Z" fill-rule="nonzero" fill="#FFFFFF"/>
			<path id="Vector" d="M25.5264 32.8562C25.2158 32.8562 24.9639 32.6042 24.9639 32.2937L24.9639 28.3562C24.9639 25.2546 22.4406 22.7312 19.3389 22.7312C16.2372 22.7312 13.7139 25.2546 13.7139 28.3562L13.7139 32.2937C13.7139 32.6042 13.4619 32.8562 13.1514 32.8562C12.8408 32.8562 12.5889 32.6042 12.5889 32.2937L12.5889 28.3562C12.5889 24.6336 15.6162 21.6062 19.3389 21.6062C23.0615 21.6062 26.0889 24.6336 26.0889 28.3562L26.0889 32.2937C26.0889 32.6042 25.8369 32.8562 25.5264 32.8562Z" fill-rule="nonzero" fill="#FFFFFF"/>
			<path id="Vector" d="M14.5575 12.6061C14.3888 12.6061 14.2212 12.5308 14.111 12.3857C13.9219 12.1382 13.9691 11.786 14.2167 11.597L14.4496 11.4193C14.7229 11.21 14.8669 10.8782 14.8354 10.5294C14.8027 10.1784 14.6082 9.88818 14.3021 9.73291C13.6542 9.40216 13.2267 8.76764 13.1603 8.03644C13.0928 7.30066 13.401 6.59528 13.9827 6.15088L14.2156 5.97205C14.4619 5.78528 14.8152 5.83026 15.0042 6.07776C15.1931 6.32526 15.1459 6.67743 14.8984 6.86639L14.6666 7.04413C14.3933 7.25226 14.2493 7.58527 14.2808 7.93402C14.3123 8.28394 14.507 8.57416 14.8129 8.73053C15.4609 9.06018 15.8884 9.69464 15.9559 10.4271C16.0234 11.1628 15.7152 11.8682 15.1335 12.3126L14.8995 12.4903C14.7971 12.5679 14.6768 12.6061 14.5575 12.6061Z" fill-rule="nonzero" fill="#FFFFFF"/>
			<path id="Vector" d="M19.6201 12.6061C19.4514 12.6061 19.2838 12.5308 19.1736 12.3857C18.9845 12.1382 19.0317 11.786 19.2793 11.597L19.5122 11.4193C19.7855 11.21 19.9296 10.8782 19.8981 10.5294C19.8666 10.1795 19.6719 9.88928 19.366 9.73291C18.7179 9.40326 18.2904 8.7688 18.2229 8.03644C18.1554 7.30066 18.4636 6.59528 19.0453 6.15088L19.2782 5.97205C19.5245 5.78528 19.8767 5.83026 20.0668 6.07776C20.2557 6.32526 20.2085 6.67743 19.9611 6.86639L19.7281 7.04413C19.4548 7.25342 19.3108 7.58527 19.3423 7.93402C19.3738 8.28394 19.5684 8.57416 19.8744 8.73053C20.5225 9.06018 20.95 9.69464 21.0175 10.4271C21.085 11.1628 20.7766 11.8682 20.1951 12.3126L19.9622 12.4914C19.8597 12.5679 19.7394 12.6061 19.6201 12.6061Z" fill-rule="nonzero" fill="#FFFFFF"/>
			<path id="Vector" d="M24.12 12.6061C23.9513 12.6061 23.7837 12.5308 23.6735 12.3857C23.4844 12.1382 23.5316 11.786 23.7792 11.597L24.0121 11.4193C24.2854 11.21 24.4294 10.8782 24.3979 10.5294C24.3665 10.1795 24.1718 9.88928 23.8658 9.73291C23.2178 9.40326 22.7903 8.7688 22.7228 8.03644C22.6553 7.30066 22.9635 6.59528 23.5452 6.15088L23.7781 5.97205C24.0255 5.78528 24.3766 5.83026 24.5667 6.07776C24.7556 6.32526 24.7084 6.67743 24.4609 6.86639L24.228 7.04413C23.9547 7.25342 23.8107 7.58527 23.8422 7.93402C23.8737 8.28394 24.0682 8.57416 24.3743 8.73053C25.0223 9.06018 25.4498 9.69464 25.5173 10.4271C25.5848 11.1628 25.2765 11.8682 24.6949 12.3126L24.462 12.4914C24.3596 12.5679 24.2393 12.6061 24.12 12.6061Z" fill-rule="nonzero" fill="#FFFFFF"/>
			<path id="Vector" d="M19.3389 32.8561C18.098 32.8561 17.0889 31.847 17.0889 30.6061C17.0889 29.579 18.5547 26.9161 18.8484 26.393C19.0464 26.0386 19.6302 26.0386 19.8282 26.393C20.123 26.9161 21.5889 29.579 21.5889 30.6061C21.5889 31.847 20.5797 32.8561 19.3389 32.8561ZM19.3389 27.8566C18.7369 29.0255 18.2139 30.2236 18.2139 30.6061C18.2139 31.226 18.7179 31.7311 19.3389 31.7311C19.9598 31.7311 20.4639 31.226 20.4639 30.6061C20.4639 30.2236 19.9408 29.0255 19.3389 27.8566Z" fill-rule="nonzero" fill="#FFFFFF"/>
		</g>
	</g>
</svg>
