<svg width="16.000000" height="22.000000" viewBox="0 0 16 22" fill="none" xmlns="http://www.w3.org/2000/svg" xmlns:xlink="http://www.w3.org/1999/xlink">
	<desc>
			Created with Pixso.
	</desc>
	<defs/>
	<path id="Vector" d="M8 0C3.58868 0 0 3.64575 0 8.12695C0 9.60205 0.651306 11.1887 0.678589 11.2559C0.888916 11.7629 1.30402 12.5508 1.60327 13.0127L7.0885 21.4556C7.31293 21.8015 7.6452 22 8 22C8.3548 22 8.68707 21.8015 8.9115 21.4561L14.3972 13.0127C14.697 12.5508 15.1115 11.7629 15.3219 11.2559C15.3492 11.1892 16 9.60254 16 8.12695C16 3.64575 12.4113 0 8 0ZM14.4541 10.8848C14.2664 11.3394 13.88 12.0723 13.6113 12.4863L8.12567 20.9297C8.0174 21.0964 7.98303 21.0964 7.87482 20.9297L2.38916 12.4863C2.12048 12.0723 1.73413 11.3389 1.54633 10.8843C1.53833 10.8647 0.941162 9.4043 0.941162 8.12695C0.941162 4.17285 4.10779 0.956055 8 0.956055C11.8922 0.956055 15.0588 4.17285 15.0588 8.12695C15.0588 9.40625 14.4602 10.8704 14.4541 10.8848Z" fill-rule="nonzero" fill="#96C12A"/>
	<path id="Vector" d="M8 4C5.79425 4 4 5.79468 4 8C4 10.2053 5.79425 12 8 12C10.2057 12 12 10.2053 12 8C12 5.79468 10.2057 4 8 4ZM8 11.1111C6.28491 11.1111 4.88892 9.71558 4.88892 8C4.88892 6.28442 6.28491 4.88892 8 4.88892C9.71509 4.88892 11.1111 6.28442 11.1111 8C11.1111 9.71558 9.71509 11.1111 8 11.1111Z" fill-rule="nonzero" fill="#96C12A"/>
</svg>
