<svg width="28.000000" height="27.910278" viewBox="0 0 28 27.9103" fill="none" xmlns="http://www.w3.org/2000/svg" xmlns:xlink="http://www.w3.org/1999/xlink">
	<desc>
			Created with Pixso.
	</desc>
	<defs/>
	<path id="Vector" d="M27.7463 13.1276C27.5928 13.064 27.416 13.0991 27.2985 13.2166L26.0676 14.4475L26.0676 6.07855C26.0676 5.85156 25.8835 5.6676 25.6566 5.6676L22.4989 5.6676L23.6451 4.52136C23.6454 4.52118 23.6455 4.521 23.6456 4.52081L24.7501 3.41632C24.9868 3.17969 25.1171 2.86493 25.1171 2.53021C25.1171 2.19556 24.9868 1.88086 24.7501 1.6441L23.4729 0.366943C23.2363 0.13031 22.9215 0 22.5869 0C22.2522 0 21.9375 0.13031 21.7008 0.366943L20.5957 1.47198L19.2605 2.80725L16.4001 5.66754L3.64331 5.66754L3.64331 1.60181C3.64331 1.37482 3.45923 1.1908 3.2323 1.1908C1.45007 1.19092 0 2.64087 0 4.42322L0 21.8788C0 21.9091 0.00354004 21.9387 0.00976562 21.9671C0.0665283 22.7233 0.393677 23.426 0.940552 23.9595C1.52502 24.5295 2.29663 24.8435 3.11316 24.8435L15.6715 24.8435L13.3064 27.2087C13.1888 27.3262 13.1537 27.5029 13.2173 27.6566C13.2809 27.8101 13.4308 27.9103 13.5969 27.9103L27.5891 27.9103C27.816 27.9103 28 27.7263 28 27.4993L28 13.5073C28 13.3411 27.8999 13.1912 27.7463 13.1276ZM22.2821 0.948242C22.4501 0.78009 22.7238 0.78009 22.8918 0.948242L24.1691 2.22546C24.3372 2.39349 24.3372 2.66711 24.1691 2.83521L23.3546 3.64966L21.4677 1.76263L22.2821 0.948242ZM20.8864 2.34387L22.7734 4.23077L22.0193 4.98486L20.1324 3.09796L20.8864 2.34387ZM27.1782 18.1252L26.4199 18.1252C26.193 18.1252 26.009 18.3092 26.009 18.5362C26.009 18.7632 26.193 18.9472 26.4199 18.9472L27.1782 18.9472L27.1782 20.1856L26.4199 20.1856C26.193 20.1856 26.009 20.3696 26.009 20.5966C26.009 20.8236 26.193 21.0076 26.4199 21.0076L27.1782 21.0076L27.1782 22.246L26.4199 22.246C26.193 22.246 26.009 22.4299 26.009 22.657C26.009 22.884 26.193 23.0679 26.4199 23.0679L27.1782 23.0679L27.1782 24.3064L26.4199 24.3064C26.193 24.3064 26.009 24.4904 26.009 24.7174C26.009 24.9444 26.193 25.1284 26.4199 25.1284L27.1782 25.1284L27.1782 27.0884L14.5891 27.0884L18.7404 22.9373C18.9009 22.7767 18.9009 22.5166 18.7404 22.3561C18.7219 22.3376 18.7021 22.3217 18.6814 22.3074C18.5214 22.1979 18.3013 22.214 18.1591 22.3561L16.4935 24.0217L3.11328 24.0217C1.86682 24.0217 0.863403 23.0485 0.823975 21.8043C0.826294 21.7263 0.832397 21.6488 0.842041 21.5723C0.842163 21.5718 0.842163 21.5714 0.842285 21.5709C0.846802 21.5345 0.852417 21.4984 0.858643 21.4623C0.859375 21.4583 0.860107 21.4542 0.86084 21.4501C0.866577 21.418 0.873047 21.386 0.880127 21.3542C0.88208 21.3453 0.884155 21.3365 0.88623 21.3277C0.892456 21.3008 0.89917 21.274 0.906372 21.2474C0.910278 21.233 0.914429 21.2187 0.918701 21.2043C0.924683 21.1834 0.930908 21.1626 0.9375 21.142C0.944092 21.1213 0.951172 21.101 0.958374 21.0806C0.963379 21.0663 0.968262 21.052 0.973633 21.0378C0.983643 21.0109 0.994263 20.9843 1.00513 20.9579C1.0083 20.9503 1.01135 20.9426 1.01453 20.9349C1.02856 20.9022 1.04321 20.8698 1.05859 20.8376C1.05933 20.8363 1.05994 20.835 1.06055 20.8336C1.38196 20.1683 2.00024 19.6724 2.74219 19.5185C2.74426 19.5181 2.74634 19.5176 2.74841 19.5172C2.78247 19.5102 2.81677 19.5042 2.85132 19.4987C2.85706 19.4978 2.86279 19.4966 2.86865 19.4957C2.8999 19.491 2.93152 19.4872 2.96301 19.4837C2.97192 19.4827 2.98071 19.4814 2.98962 19.4805C3.02002 19.4774 3.05078 19.4754 3.08154 19.4735C3.09131 19.4729 3.10095 19.4719 3.11072 19.4714C3.151 19.4694 3.19153 19.4683 3.2323 19.4683C3.45923 19.4683 3.64331 19.2843 3.64331 19.0573L3.64331 16.0775C3.64331 15.8505 3.45923 15.6664 3.2323 15.6664C3.00537 15.6664 2.82129 15.8505 2.82129 16.0775L2.82129 18.6722C2.12732 18.76 1.48315 19.0695 0.97522 19.5656C0.921875 19.6177 0.871216 19.6719 0.821899 19.7271L0.821899 4.42322C0.821899 3.23425 1.68738 2.24353 2.82129 2.04785L2.82129 6.07855L2.82129 14.4336L2.82129 14.4337C2.82129 14.6606 3.00525 14.8446 3.2323 14.8446C3.45923 14.8446 3.64319 14.6606 3.64319 14.4337L3.64319 14.4336L3.64319 6.48956L15.5782 6.48956L13.3063 8.76147C13.1458 8.92206 13.1458 9.18219 13.3063 9.34271C13.4668 9.50317 13.7271 9.50317 13.8875 9.34271L16.861 6.3692C16.8611 6.36908 16.8612 6.36896 16.8613 6.3689L19.5511 3.67914L21.438 5.5661L21.2166 5.78748C21.2164 5.78766 21.2162 5.78778 21.2161 5.78796L12.9293 14.0748L11.0424 12.1879L12.6758 10.5544C12.8363 10.3939 12.8363 10.1337 12.6758 9.97321C12.5153 9.81274 12.2551 9.81274 12.0946 9.97321L10.1705 11.8972C10.1603 11.9075 10.1506 11.9184 10.1416 11.9296C10.1387 11.9333 10.136 11.9373 10.1332 11.9412C10.1273 11.9489 10.1216 11.9566 10.1163 11.9647C10.1133 11.9694 10.1106 11.9742 10.1078 11.9791C10.1031 11.9868 10.0989 11.9945 10.0948 12.0024C10.0922 12.0076 10.0898 12.0128 10.0874 12.0181C10.0837 12.0262 10.0804 12.0344 10.0773 12.0426C10.0762 12.0455 10.0748 12.0482 10.0737 12.0511L9.27307 14.3193L8.72717 15.8658C8.71997 15.8864 8.71472 15.9072 8.71082 15.9283L7.34412 15.9283C7.11719 15.9283 6.93311 16.1123 6.93311 16.3393C6.93311 16.5663 7.11719 16.7502 7.34412 16.7502L18.7253 16.7502C18.9524 16.7502 19.1364 16.5663 19.1364 16.3393C19.1364 16.1123 18.9524 15.9283 18.7253 15.9283L10.5598 15.9283L13.0662 15.0436C13.0682 15.0428 13.0702 15.0417 13.0723 15.041C13.082 15.0374 13.0916 15.0333 13.1011 15.0291C13.1047 15.0273 13.1085 15.0256 13.1122 15.0238C13.1221 15.0189 13.1317 15.0135 13.1412 15.0077C13.1443 15.0059 13.1475 15.0042 13.1505 15.0023C13.1604 14.9959 13.17 14.989 13.1794 14.9816C13.1819 14.9798 13.1843 14.9782 13.1866 14.9764C13.198 14.9672 13.2092 14.9573 13.2198 14.9467L21.677 6.48962L25.2456 6.48962L25.2456 15.2695L19.3669 21.1483C19.2064 21.3088 19.2064 21.569 19.3669 21.7295C19.377 21.7395 19.3873 21.7489 19.3982 21.7577C19.4735 21.8191 19.5656 21.8499 19.6575 21.8499C19.7495 21.8499 19.8416 21.8191 19.9169 21.7577C19.9277 21.7489 19.9381 21.7395 19.9481 21.7295C19.9482 21.7293 19.9481 21.7295 19.9482 21.7293L27.1782 14.4993L27.1782 18.1252ZM12.1777 14.4854L11.0005 14.901L10.2162 14.1167L10.6317 12.9395L12.1777 14.4854Z" fill-rule="nonzero" fill="#FFFFFF"/>
</svg>
