<svg width="21.000000" height="19.727295" viewBox="0 0 21 19.7273" fill="none" xmlns="http://www.w3.org/2000/svg" xmlns:xlink="http://www.w3.org/1999/xlink">
	<desc>
			Created with Pixso.
	</desc>
	<defs/>
	<path id="Vector" d="M20.4493 14.4778L17.5126 11.7249C16.4637 10.7417 14.6807 11.135 14.2611 12.4131C13.9464 13.2981 12.8976 13.7896 11.9536 13.593C9.85596 13.1013 7.02405 10.5449 6.49963 8.48022C6.18494 7.59521 6.81433 6.61206 7.7583 6.31714C9.1217 5.92383 9.54126 4.25244 8.49243 3.26929L5.55566 0.516113C4.71655 -0.172119 3.45801 -0.172119 2.72375 0.516113L0.730957 2.38428C-1.26184 4.35083 0.940674 9.56177 5.87036 14.1829C10.7999 18.804 16.3588 20.967 18.4565 19.0005L20.4493 17.1326C21.1836 16.3459 21.1836 15.166 20.4493 14.4778Z" fill-rule="nonzero" fill="#FFFFFF"/>
</svg>
