<svg width="35.624878" height="35.624756" viewBox="0 0 35.6249 35.6248" fill="none" xmlns="http://www.w3.org/2000/svg" xmlns:xlink="http://www.w3.org/1999/xlink">
	<desc>
			Created with Pixso.
	</desc>
	<defs>
		<clipPath id="clip500_92">
			<rect id="plant 1" width="26.000000" height="26.000000" transform="translate(5.026489 4.557373)" fill="white"/>
		</clipPath>
		<clipPath id="clip301_5646">
			<rect id="shield (3) 1" width="31.028069" height="31.028069" transform="translate(2.298340 2.298340)" fill="white"/>
		</clipPath>
		<clipPath id="clip301_5645">
			<rect id="vr-glasses 1" width="35.624817" height="35.624817" fill="white"/>
		</clipPath>
	</defs>
	<g clip-path="url(#clip301_5645)">
		<g clip-path="url(#clip301_5646)">
			<g clip-path="url(#clip500_92)">
				<path id="Vector" d="M15.4794 8.28528C13.2079 6.01501 8.76306 5.75171 5.61682 5.75171C5.29102 5.75171 5.02649 6.01611 5.02649 6.34192C5.02649 9.48816 5.28857 13.9331 7.56006 16.2046C8.51868 17.1632 9.98853 17.5918 11.4453 17.5918C13.0284 17.5918 14.5974 17.0853 15.4794 16.2034C17.1711 14.5116 17.4817 10.2863 15.4794 8.28528ZM14.6448 15.3699C13.3815 16.632 9.87402 16.848 8.39587 15.3699C6.5625 13.5365 6.24487 9.81177 6.21057 6.93579C9.08655 6.97009 12.8113 7.2876 14.6447 9.12109C16.1228 10.5991 15.9067 14.1079 14.6448 15.3699Z" fill-rule="nonzero" fill="#FFFFFF"/>
				<path id="Vector" d="M30.4363 8.08667C27.29 8.08667 22.8451 8.34875 20.5736 10.6202C18.5714 12.6212 18.8818 16.8466 20.5736 18.5383C21.4556 19.4191 23.0233 19.9255 24.6066 19.9255C26.0634 19.9255 27.532 19.4982 28.493 18.5396C30.7633 16.2682 31.0265 11.8232 31.0265 8.677C31.0266 8.3512 30.7621 8.08667 30.4363 8.08667ZM27.656 17.7037C26.1779 19.1818 22.6692 18.9657 21.4071 17.7037C20.1451 16.4417 19.9291 12.933 21.4071 11.4548C23.2406 9.62146 26.9653 9.30383 29.8412 9.26965C29.807 12.1467 29.4894 15.8715 27.656 17.7037Z" fill-rule="nonzero" fill="#FFFFFF"/>
				<path id="Vector" d="M26.1731 13.1964C26.0338 12.9 25.6348 12.7986 25.3408 12.9354C20.8134 15.0641 18.5891 18.7759 17.5785 22.5914C16.3282 14.4785 12.712 12.0051 11.1785 10.9557C10.9873 10.8246 10.8385 10.729 10.7559 10.6475C10.5256 10.4174 10.1514 10.4174 9.92114 10.6475C9.69104 10.8777 9.69104 11.252 9.92114 11.4822C10.0381 11.5979 10.24 11.7432 10.5127 11.9297C12.2411 13.1115 16.8323 16.2529 16.8323 28.7731C16.8323 29.0989 17.0968 29.3634 17.4226 29.3634C17.7484 29.3634 18.0129 29.0989 18.0129 28.7743C18.0129 23.7155 19.3718 17.0464 25.8438 14.0051C25.8438 14.004 25.9393 13.9591 25.9393 13.9591C26.2334 13.8197 26.3124 13.4916 26.1731 13.1964Z" fill-rule="nonzero" fill="#FFFFFF"/>
			</g>
		</g>
	</g>
</svg>
