<svg width="16.000000" height="16.000000" viewBox="0 0 16 16" fill="none" xmlns="http://www.w3.org/2000/svg" xmlns:xlink="http://www.w3.org/1999/xlink">
	<desc>
			Created with Pixso.
	</desc>
	<defs/>
	<path id="Vector" d="M15.6039 3.25488C15.8196 3.25488 15.9961 3.07849 16 2.86279L16 0.396118C16 0.176514 15.8235 0 15.6039 0L13.1373 0C12.9216 0 12.7451 0.176514 12.7451 0.396118L12.7451 1.25488L3.25488 1.25488L3.25488 0.396118C3.25488 0.18042 3.07843 0.00390625 2.86273 0L0.396057 0C0.18042 0 0.00390625 0.176514 0 0.396118L0 2.86279C0 3.07849 0.176453 3.25488 0.396057 3.25488L1.25488 3.25488L1.25488 12.7451L0.396057 12.7451C0.18042 12.7451 0.00390625 12.9215 0 13.1372L0 15.6039C0 15.8196 0.176453 15.9961 0.396057 16L2.86273 16C3.07843 16 3.25488 15.8235 3.25488 15.6039L3.25488 14.7451L12.7451 14.7451L12.7451 15.6039C12.7451 15.8196 12.9216 15.9961 13.1373 16L15.6039 16C15.8196 16 15.9961 15.8235 16 15.6039L16 13.1372C16 12.9215 15.8235 12.7451 15.6039 12.7451L14.7451 12.7451L14.7451 3.25488L15.6039 3.25488ZM0.784302 2.47058L0.784302 0.784302L2.47058 0.784302L2.47058 2.47058L0.784302 2.47058ZM2.47058 15.2157L0.784302 15.2157L0.784302 13.5294L2.47058 13.5294L2.47058 15.2157ZM12.7451 13.1372L12.7451 13.9608L3.25488 13.9608L3.25488 13.1372C3.25488 12.9215 3.07843 12.7451 2.86273 12.7451L2.03925 12.7451L2.03925 3.25488L2.86273 3.25488C3.07843 3.25488 3.25488 3.07849 3.25488 2.86279L3.25488 2.03918L12.7451 2.03918L12.7451 2.86279C12.7451 3.07849 12.9216 3.25488 13.1373 3.25488L13.9608 3.25488L13.9608 12.7451L13.1373 12.7451C12.9216 12.7451 12.7451 12.9215 12.7451 13.1372ZM15.2157 13.5294L15.2157 15.2157L13.5294 15.2157L13.5294 13.5294L15.2157 13.5294ZM13.5294 2.47058L13.5294 0.784302L15.2157 0.784302L15.2157 2.47058L13.5294 2.47058Z" fill-rule="nonzero" fill="#96C12A"/>
</svg>
