<svg width="35.624878" height="35.624756" viewBox="0 0 35.6249 35.6248" fill="none" xmlns="http://www.w3.org/2000/svg" xmlns:xlink="http://www.w3.org/1999/xlink">
	<desc>
			Created with Pixso.
	</desc>
	<defs>
		<clipPath id="clip301_5615">
			<rect id="shield (3) 1" width="31.028069" height="31.028069" transform="translate(2.298340 2.298340)" fill="white"/>
		</clipPath>
		<clipPath id="clip301_5614">
			<rect id="vr-glasses 1" width="35.624817" height="35.624817" fill="white"/>
		</clipPath>
	</defs>
	<g clip-path="url(#clip301_5614)">
		<g clip-path="url(#clip301_5615)">
			<path id="Vector" d="M26.0258 12.8309C25.7737 12.5789 25.3638 12.5789 25.1117 12.8309L16.5195 21.4231L11.8046 16.7095C11.5525 16.4573 11.1426 16.4573 10.8905 16.7095C10.6384 16.9615 10.6384 17.3713 10.8905 17.6235L16.0618 22.7948C16.1885 22.9202 16.354 22.9836 16.5195 22.9836C16.6849 22.9836 16.8505 22.9203 16.9758 22.7948L26.0258 13.745C26.2778 13.4928 26.2778 13.083 26.0258 12.8309Z" fill-rule="nonzero" fill="#FFFFFF"/>
			<path id="Vector" d="M30.9257 6.20398L17.9973 2.32544C17.8759 2.28931 17.7478 2.28931 17.6263 2.32544L4.698 6.20398C4.42517 6.2854 4.23767 6.53748 4.23767 6.82324L4.23767 21.0444C4.23767 26.7614 12.954 31.8462 17.6211 33.298C17.6832 33.3174 17.7478 33.3264 17.8125 33.3264C17.8771 33.3264 17.9418 33.3174 18.0038 33.298C22.6709 31.8448 31.3872 26.7614 31.3872 21.0444L31.3872 6.82324C31.3872 6.53748 31.1998 6.28674 30.9257 6.20398ZM30.0944 21.0444C30.0944 25.5835 22.9023 30.3567 17.8125 32.0024C12.7225 30.3567 5.53052 25.5835 5.53052 21.0444L5.53052 7.3042L17.8125 3.61963L30.0944 7.3042L30.0944 21.0444Z" fill-rule="nonzero" fill="#FFFFFF"/>
		</g>
	</g>
</svg>
