<svg width="32.000000" height="32.000000" viewBox="0 0 32 32" fill="none" xmlns="http://www.w3.org/2000/svg" xmlns:xlink="http://www.w3.org/1999/xlink">
	<desc>
			Created with Pixso.
	</desc>
	<defs>
		<clipPath id="clip500_88">
			<rect id="sand 1" width="32.000000" height="32.000000" fill="white"/>
		</clipPath>
	</defs>
	<g clip-path="url(#clip500_88)">
		<path id="Vector" d="M31.3489 26.0258L1.7572 26.0258L6.35315 17.7419C7.14844 16.3083 8.53406 15.3436 10.1544 15.0952C11.7747 14.8468 13.3857 15.3519 14.5741 16.4812L16.6268 18.432C17.422 19.1875 18.5043 19.5612 19.5962 19.4574C20.6881 19.3535 21.6803 18.7822 22.3185 17.8904L22.3577 17.8357C22.6381 17.4436 23.0739 17.2247 23.5573 17.2323C24.0392 17.241 24.4683 17.4762 24.7346 17.8779L28.5248 23.5955C28.7234 23.8953 29.1276 23.9772 29.4272 23.7784C29.7271 23.5796 29.809 23.1757 29.6102 22.8759L25.8201 17.1583C25.3209 16.4054 24.4836 15.9463 23.5804 15.9301C22.676 15.913 21.824 16.343 21.2986 17.0776L21.2594 17.1323C20.8406 17.7178 20.1893 18.0927 19.4727 18.1609C18.7557 18.2288 18.0458 17.9838 17.524 17.4879L15.4713 15.5371C13.9886 14.1282 11.9786 13.4979 9.95703 13.8079C7.9353 14.1179 6.20667 15.3214 5.21436 17.11L0.0817871 26.3611C-0.0301514 26.5627 -0.0269775 26.8086 0.0900879 27.0073C0.207031 27.2062 0.420532 27.3281 0.651245 27.3281L31.3489 27.3281C31.7085 27.3281 32 27.0366 32 26.677C32 26.3174 31.7085 26.0258 31.3489 26.0258Z" fill-rule="nonzero" fill="#FFFFFF"/>
		<path id="Vector" d="M14.9664 14.3711C15.2504 14.5918 15.6595 14.5404 15.8801 14.2565L16.9155 12.9241L19.5436 14.9663L18.5083 16.2987C18.2876 16.5826 18.3389 16.9917 18.6229 17.2124C18.7417 17.3047 18.8824 17.3495 19.0221 17.3495C19.2162 17.3495 19.4083 17.2631 19.5366 17.0979L20.9716 15.2513C21.0775 15.115 21.125 14.9421 21.1035 14.7708C21.082 14.5994 20.9933 14.4436 20.8569 14.3376L19.5428 13.3164L23.9404 7.65747L25.2544 8.67871C25.3732 8.771 25.5139 8.8158 25.6536 8.8158C25.8477 8.8158 26.0398 8.72925 26.1681 8.56409C26.3889 8.28015 26.3375 7.87109 26.0536 7.65039L22.3971 4.80896C22.113 4.58813 21.7039 4.63965 21.4833 4.92346C21.2626 5.20752 21.3138 5.61658 21.5979 5.83728L22.9119 6.8584L18.5144 12.5175L17.2003 11.4962C16.9164 11.2755 16.5072 11.3269 16.2866 11.6108L14.8517 13.4574C14.6311 13.7412 14.6824 14.1504 14.9664 14.3711Z" fill-rule="nonzero" fill="#FFFFFF"/>
	</g>
</svg>
