<svg width="31.028076" height="31.028076" viewBox="0 0 31.0281 31.0281" fill="none" xmlns="http://www.w3.org/2000/svg" xmlns:xlink="http://www.w3.org/1999/xlink">
	<desc>
			Created with Pixso.
	</desc>
	<defs>
		<clipPath id="clip500_112">
			<rect id="selection 1" width="25.000000" height="25.000000" transform="translate(3.728149 3.259033)" fill="white"/>
		</clipPath>
		<clipPath id="clip301_5702">
			<rect id="shield (3) 1" width="31.028069" height="31.028069" fill="white"/>
		</clipPath>
	</defs>
	<g clip-path="url(#clip301_5702)">
		<g clip-path="url(#clip500_112)">
			<path id="Vector" d="M28.1093 8.34479C28.4463 8.34479 28.722 8.06909 28.7281 7.73206L28.7281 3.87793C28.7281 3.53479 28.4524 3.25903 28.1093 3.25903L24.2551 3.25903C23.9181 3.25903 23.6423 3.53479 23.6423 3.87793L23.6423 5.21979L8.81396 5.21979L8.81396 3.87793C8.81396 3.54089 8.53821 3.26514 8.20117 3.25903L4.34705 3.25903C4.01001 3.25903 3.73425 3.53479 3.72815 3.87793L3.72815 7.73206C3.72815 8.06909 4.00391 8.34479 4.34705 8.34479L5.68896 8.34479L5.68896 23.1732L4.34705 23.1732C4.01001 23.1732 3.73425 23.449 3.72815 23.786L3.72815 27.6401C3.72815 27.9772 4.00391 28.2529 4.34705 28.259L8.20117 28.259C8.53821 28.259 8.81396 27.9833 8.81396 27.6401L8.81396 26.2982L23.6423 26.2982L23.6423 27.6401C23.6423 27.9772 23.9181 28.2529 24.2551 28.259L28.1093 28.259C28.4463 28.259 28.722 27.9833 28.7281 27.6401L28.7281 23.786C28.7281 23.449 28.4524 23.1732 28.1093 23.1732L26.7673 23.1732L26.7673 8.34479L28.1093 8.34479ZM4.95361 7.11932L4.95361 4.4845L7.5885 4.4845L7.5885 7.11932L4.95361 7.11932ZM7.5885 27.0336L4.95361 27.0336L4.95361 24.3987L7.5885 24.3987L7.5885 27.0336ZM23.6423 23.786L23.6423 25.0728L8.81396 25.0728L8.81396 23.786C8.81396 23.449 8.53821 23.1732 8.20117 23.1732L6.91443 23.1732L6.91443 8.34479L8.20117 8.34479C8.53821 8.34479 8.81396 8.06909 8.81396 7.73206L8.81396 6.44531L23.6423 6.44531L23.6423 7.73206C23.6423 8.06909 23.9181 8.34479 24.2551 8.34479L25.5419 8.34479L25.5419 23.1732L24.2551 23.1732C23.9181 23.1732 23.6423 23.449 23.6423 23.786ZM27.5027 24.3987L27.5027 27.0336L24.8678 27.0336L24.8678 24.3987L27.5027 24.3987ZM24.8678 7.11932L24.8678 4.4845L27.5027 4.4845L27.5027 7.11932L24.8678 7.11932Z" fill-rule="nonzero" fill="#FFFFFF"/>
		</g>
	</g>
</svg>
