<svg width="16" height="16" viewBox="0 0 16 16" fill="none" xmlns="http://www.w3.org/2000/svg">
<g id="user (2) 1" clip-path="url(#clip0_143_94)">
<path id="Vector" d="M7.55554 7.99994C8.65456 7.99994 9.6061 7.60575 10.3838 6.82803C11.1612 6.05043 11.5555 5.09899 11.5555 3.99981C11.5555 2.90101 11.1614 1.94945 10.3837 1.17159C9.60597 0.394123 8.65443 -6.10352e-05 7.55554 -6.10352e-05C6.4564 -6.10352e-05 5.50499 0.394123 4.72741 1.17172C3.94984 1.94932 3.55554 2.90089 3.55554 3.99981C3.55554 5.09899 3.94984 6.05056 4.72741 6.82816C5.50524 7.60563 6.45678 7.99994 7.55554 7.99994ZM5.41566 1.85986C6.0123 1.2632 6.71221 0.973172 7.55554 0.973172C8.39875 0.973172 9.09878 1.2632 9.69555 1.85986C10.2922 2.45665 10.5823 3.15671 10.5823 3.99981C10.5823 4.84317 10.2922 5.5431 9.69555 6.13989C9.09878 6.73667 8.39875 7.02671 7.55554 7.02671C6.71246 7.02671 6.01256 6.73655 5.41566 6.13989C4.81889 5.54323 4.52874 4.84317 4.52874 3.99981C4.52874 3.15671 4.81889 2.45665 5.41566 1.85986Z" fill="#96C12A"/>
<path id="Vector_2" d="M14.1899 12.4244C14.1683 12.1229 14.1247 11.794 14.0604 11.4466C13.9956 11.0967 13.912 10.7659 13.8121 10.4635C13.7087 10.151 13.5683 9.84235 13.3946 9.5466C13.2145 9.23963 13.0028 8.97233 12.7653 8.75237C12.5169 8.52226 12.2128 8.33725 11.8612 8.2023C11.5108 8.06806 11.1224 8.00006 10.707 8.00006C10.5439 8.00006 10.3861 8.06488 10.0814 8.25697C9.89389 8.37539 9.67454 8.51234 9.42971 8.66382C9.22036 8.79298 8.93675 8.914 8.58645 9.02357C8.24469 9.13065 7.89768 9.18496 7.55506 9.18496C7.21269 9.18496 6.86568 9.13065 6.52367 9.02357C6.17374 8.91412 5.89001 8.7931 5.68103 8.66394C5.43851 8.51388 5.21904 8.37692 5.02871 8.25685C4.72426 8.06476 4.56648 7.99994 4.40334 7.99994C3.98781 7.99994 3.59959 8.06806 3.24929 8.20242C2.8979 8.33713 2.59369 8.52214 2.34507 8.75249C2.10756 8.97256 1.89589 9.23974 1.71592 9.5466C1.54242 9.84235 1.40196 10.1509 1.29856 10.4636C1.1987 10.766 1.11518 11.0967 1.05032 11.4466C0.98594 11.7935 0.942412 12.1226 0.920831 12.4248C0.899615 12.7203 0.888885 13.0279 0.888885 13.3386C0.888885 14.1464 1.15408 14.8004 1.67703 15.2827C2.19352 15.7586 2.8768 15.9999 3.70799 15.9999H11.4031C12.2341 15.9999 12.9173 15.7586 13.434 15.2827C13.957 14.8007 14.2222 14.1465 14.2222 13.3385C14.2221 13.0267 14.2112 12.7191 14.1899 12.4244ZM12.7882 14.6257C12.4469 14.9402 11.9939 15.0931 11.403 15.0931H3.70799C3.117 15.0931 2.66392 14.9402 2.32276 14.6258C1.98807 14.3173 1.82542 13.8961 1.82542 13.3386C1.82542 13.0487 1.83529 12.7623 1.85504 12.4875C1.87431 12.2178 1.91369 11.9216 1.9721 11.6068C2.02977 11.296 2.10317 11.0042 2.19047 10.7401C2.27423 10.4869 2.38848 10.2361 2.53016 9.99454C2.66538 9.76431 2.82096 9.56679 2.99263 9.40763C3.15321 9.25875 3.35561 9.13691 3.59411 9.04553C3.81467 8.96099 4.06255 8.91471 4.33165 8.90774C4.36445 8.92463 4.42285 8.95686 4.51747 9.0166C4.70999 9.13809 4.9319 9.2767 5.17722 9.42841C5.45375 9.59914 5.81003 9.75333 6.23568 9.88639C6.67084 10.0226 7.11466 10.0918 7.55519 10.0918C7.99571 10.0918 8.43965 10.0226 8.87457 9.88651C9.30059 9.75321 9.65674 9.59914 9.93364 9.42818C10.1847 9.2728 10.4004 9.13821 10.5929 9.0166C10.6875 8.95698 10.7459 8.92463 10.7787 8.90774C11.0479 8.91471 11.2958 8.96099 11.5165 9.04553C11.7549 9.13691 11.9573 9.25887 12.1179 9.40763C12.2895 9.56667 12.4451 9.76419 12.5803 9.99466C12.7221 10.2361 12.8365 10.487 12.9201 10.74C13.0076 11.0045 13.0811 11.2961 13.1386 11.6067C13.1969 11.9221 13.2364 12.2184 13.2557 12.4876V12.4878C13.2756 12.7616 13.2856 13.0478 13.2857 13.3386C13.2856 13.8962 13.1229 14.3173 12.7882 14.6257Z" fill="#96C12A"/>
</g>
<defs>
<clipPath id="clip0_143_94">
<rect width="16" height="16" fill="white"/>
</clipPath>
</defs>
</svg>
